<?xml version="1.0" encoding="utf-8"?>
<!-- Generator: Adobe Illustrator 19.0.1, SVG Export Plug-In . SVG Version: 6.00 Build 0)  -->
<!DOCTYPE svg PUBLIC "-//W3C//DTD SVG 1.1//EN" "http://www.w3.org/Graphics/SVG/1.1/DTD/svg11.dtd">
<svg version="1.1" xmlns="http://www.w3.org/2000/svg" xmlns:xlink="http://www.w3.org/1999/xlink" x="0px" y="0px"
	 viewBox="0 0 300 240" enable-background="new 0 0 300 240" xml:space="preserve">
<g id="base_template">
</g>
<g id="elements">
</g>
<g id="examples">
	<g id="map">
	</g>
</g>
<g id="graphic">
	<g>
		<path fill="#FFFFFF" d="M119.507,174.721h-4.829v14.185h5.282c2.339,0,3.244-1.283,3.244-3.621v-6.564
			C123.204,176.079,121.922,174.721,119.507,174.721z"/>
		<path fill="#FFFFFF" d="M123.054,163.932v-6.262c0-2.263-0.981-3.621-3.319-3.621h-5.056v13.807h4.678
			C121.77,167.855,123.054,166.572,123.054,163.932z"/>
		<path fill="#FFFFFF" d="M150.581,153.444c-3.018,0-4.753,1.962-4.753,4.904v26.257c0,2.943,1.735,4.904,4.753,4.904
			c3.093,0,4.829-1.962,4.829-4.904v-26.257C155.41,155.406,153.675,153.444,150.581,153.444z"/>
		<path fill="#FFFFFF" d="M280.177,39.842h-15.813c-1.383-11.61-13.646-21.575-35.688-28.92C207.556,3.879,179.588,0,149.923,0
			C95.904,0,38.604,13.947,35.489,39.842H19.663C8.802,39.842,0,50.235,0,63.053v153.741C0,229.611,8.802,240,19.663,240h260.514
			c10.863,0,19.664-10.389,19.664-23.207V63.053C299.841,50.235,291.04,39.842,280.177,39.842z M95.993,135.828H72.604v-50.25h9.356
			v41.95h14.033V135.828z M99.43,124.209v-38.63h9.507v38.63c0,2.942,1.66,4.602,4.677,4.602c3.093,0,4.753-1.66,4.753-4.602v-38.63
			h9.13v38.63c0,7.545-5.734,12.751-13.883,12.751C105.466,136.959,99.43,131.754,99.43,124.209z M132.258,185.963
			c0,7.017-4.3,10.638-11.166,10.638h-15.844v-50.25h15.693c6.866,0,11.091,3.697,11.091,10.638v5.433c0,4.3-1.66,7.545-5.961,8.45
			c4.527,1.207,6.187,4.301,6.187,8.526V185.963z M164.842,184.002c0,7.997-5.432,13.732-14.26,13.732
			c-8.752,0-14.26-5.734-14.26-13.732v-25.05c0-7.922,5.508-13.657,14.26-13.657c8.828,0,14.26,5.734,14.26,13.657V184.002z
			 M132.377,135.828v-50.25h8.073l9.281,21.805l3.319,7.998V85.578h8.45v50.25h-7.243l-9.733-21.428l-3.546-7.998v29.426H132.377z
			 M180.721,92.67c-3.395,0-5.131,2.037-5.131,4.829v26.408c0,2.791,1.735,4.829,5.131,4.829s5.055-2.037,5.055-4.98v-6.036h8.375
			v6.111c0,7.545-4.678,13.129-13.582,13.129c-8.978,0-14.486-6.036-14.486-13.807V98.254c0-7.772,5.508-13.807,14.486-13.807
			c8.903,0,13.582,5.583,13.582,13.128v6.111h-8.375V97.65C185.776,94.708,184.116,92.67,180.721,92.67z M187.64,196.602
			l-5.885-17.354l-6.414,17.354h-9.13l10.337-25.352l-9.733-24.898h9.809l5.507,17.354l6.036-17.354h9.205l-10.035,24.144
			l10.11,26.106H187.64z M227.528,135.828h-9.431V115.23h-10.488v20.598h-9.356v-50.25h9.356v21.277h10.488V85.578h9.431V135.828z
			 M47.339,39.842c4.169-12.462,42.42-28.237,102.583-28.237c28.451,0,55.116,3.667,75.083,10.324
			c15.328,5.108,25.46,11.787,27.494,17.912H47.339z"/>
	</g>
</g>
</svg>
