<?xml version="1.0" encoding="utf-8"?>
<!-- Generator: Adobe Illustrator 19.0.1, SVG Export Plug-In . SVG Version: 6.00 Build 0)  -->
<!DOCTYPE svg PUBLIC "-//W3C//DTD SVG 1.1//EN" "http://www.w3.org/Graphics/SVG/1.1/DTD/svg11.dtd">
<svg version="1.1" xmlns="http://www.w3.org/2000/svg" xmlns:xlink="http://www.w3.org/1999/xlink" x="0px" y="0px"
	 viewBox="0 0 300 240" enable-background="new 0 0 300 240" xml:space="preserve">
<g id="base_template">
</g>
<g id="elements">
</g>
<g id="examples">
	<g id="map">
	</g>
</g>
<g id="graphic">
	<g display="none">
		<path fill="#C3C6C8" d="M293.721,50.375c0.11,0.171,0.205,0.355,0.31,0.533c-3.435-4.503-8.394-7.349-13.932-7.349h-15.091
			c-0.481-4.042-2.361-7.872-5.556-11.452c0.94,0.878,1.818,1.766,2.588,2.677c-4.854-7.651-15.36-14.29-31.091-19.532
			C210.791,8.53,184.1,4.829,155.789,4.829c-51.553,0-106.236,13.311-109.208,38.023H31.475c-10.363,0-18.764,9.919-18.764,22.152
			v0.659c0,0.015-0.002,0.031-0.002,0.048v146.723c0,7.077,2.822,13.362,7.2,17.417c3.287,3.375,7.567,5.437,12.269,5.437h248.625
			c10.367,0,18.766-9.915,18.766-22.147V66.416C299.568,60.096,297.317,54.411,293.721,50.375z M57.888,43.558
			c3.978-11.894,40.484-26.948,97.901-26.948c27.152,0,52.6,3.499,71.656,9.853c14.628,4.875,24.298,11.249,26.239,17.095H57.888z"
			/>
		<g display="inline">
			<path fill="#AC162C" d="M274.335,36.509h-15.091c-1.32-11.08-13.024-20.59-34.059-27.6
				c-20.156-6.721-46.848-10.423-75.159-10.423c-51.553,0-106.238,13.311-109.21,38.023H25.712
				c-10.365,0-18.766,9.919-18.766,22.152v146.723c0,12.232,8.401,22.147,18.766,22.147h248.623
				c10.367,0,18.766-9.915,18.766-22.147V58.66C293.101,46.428,284.702,36.509,274.335,36.509z M52.125,36.509
				c3.978-11.894,40.484-26.948,97.901-26.948c27.152,0,52.6,3.499,71.655,9.853c14.629,4.875,24.298,11.249,26.239,17.095H52.125z"
				/>
			<path fill="#A91E36" d="M221.33,15.886c-19.055-6.354-44.503-9.849-71.655-9.849c-57.417,0-93.923,15.05-97.901,26.948h1.533
				c8.266-11.324,43.411-24.126,96.368-24.126c27.152,0,52.6,3.495,71.655,9.849c12.303,4.102,21.075,9.262,24.717,14.277h1.522
				C245.627,27.139,235.958,20.765,221.33,15.886z"/>
			<path fill="#A91E36" d="M287.958,43.325c2.334,3.693,3.733,8.258,3.733,13.22l-4.117,146.546
				c0,12.232-6.554,19.743-16.921,19.743l-246.353,2.582c-5.009,0-9.549-2.33-12.914-6.106c3.421,5.408,8.87,8.927,15.029,8.927
				h248.625c10.367,0,18.766-9.915,18.766-22.147V59.367C293.805,53.046,291.554,47.361,287.958,43.325z"/>
			<path fill="#EB0029" d="M9.063,60.775c0-12.232,8.401-22.152,18.764-22.152h15.106c2.972-24.713,57.655-38.023,109.208-38.023
				c28.311,0,55.003,3.702,75.159,10.423c13.761,4.586,23.498,10.245,28.976,16.711c-4.854-7.651-15.36-14.29-31.091-19.532
				C205.028,1.48,178.337-2.221,150.026-2.221c-51.553,0-106.236,13.311-109.208,38.023H25.712
				c-10.363,0-18.764,9.919-18.764,22.152v146.723c0,6.317,2.254,12.005,5.85,16.041c-2.336-3.693-3.735-8.258-3.735-13.22V60.775z"
				/>
		</g>
		<g display="inline">
			<g>
				<path fill="#CF0A2C" d="M278.923,194.857c0,10.683-7.545,19.342-16.859,19.342H38.69c-9.312,0-16.859-8.659-16.859-19.342
					V66.736c0-10.679,7.548-19.338,16.859-19.338h223.373c9.314,0,16.859,8.659,16.859,19.338V194.857z"/>
				<g>
					<path fill="#AC162C" d="M272.486,51.557c1.398,2.817,2.206,6.069,2.206,9.541v128.118c0,10.683-7.545,19.342-16.859,19.342
						H34.46c-3.939,0-7.554-1.561-10.423-4.158c2.9,5.848,8.37,9.799,14.653,9.799h223.373c9.314,0,16.859-8.659,16.859-19.342
						V66.739C278.923,60.575,276.403,55.099,272.486,51.557z"/>
					<path fill="#EB0029" stroke="#EB0029" d="M26.061,72.38c0-10.681,7.548-19.34,16.859-19.34h223.373
						c3.939,0,7.554,1.562,10.423,4.158c-2.898-5.848-8.368-9.799-14.653-9.799H38.69c-9.312,0-16.859,8.659-16.859,19.34v128.118
						c0,6.164,2.522,11.642,6.436,15.184c-1.398-2.817-2.206-6.069-2.206-9.543V72.38z"/>
					<path fill="none" stroke="#7A232E" d="M278.923,194.857c0,10.683-7.545,19.342-16.859,19.342H38.69
						c-9.312,0-16.859-8.659-16.859-19.342V66.736c0-10.679,7.548-19.338,16.859-19.338h223.373c9.314,0,16.859,8.659,16.859,19.338
						V194.857z"/>
				</g>
			</g>
			<g display="none">
				
					<ellipse transform="matrix(0.9998 0.0182 -0.0182 0.9998 1.0401 -1.266)" display="inline" fill="#FFFFFF" cx="69.91" cy="56.38" rx="13.247" ry="1.248"/>
				<path display="inline" fill="#FFFFFF" d="M49.807,57.146c-0.956,0.144-1.849-0.514-1.993-1.471
					c-0.144-0.954,0.512-1.844,1.467-1.987c0.956-0.145,1.847,0.51,1.991,1.465C51.418,56.107,50.759,57.001,49.807,57.146z"/>
				<circle display="inline" fill="#FFFFFF" cx="54.545" cy="57.564" r="1.202"/>
			</g>
		</g>
		<path display="inline" fill="none" stroke="#7A232E" d="M274.104,36.509h-15.091c-1.32-11.08-13.024-20.59-34.06-27.6
			c-20.156-6.721-46.848-10.423-75.159-10.423c-51.553,0-106.24,13.311-109.21,38.023H25.479c-10.363,0-18.764,9.919-18.764,22.152
			v146.723c0,12.232,8.401,22.147,18.764,22.147h248.625c10.367,0,18.766-9.915,18.766-22.147V58.66
			C292.87,46.428,284.471,36.509,274.104,36.509z M51.894,36.509c3.978-11.894,40.483-26.948,97.901-26.948
			c27.152,0,52.6,3.499,71.656,9.853c14.628,4.875,24.298,11.249,26.239,17.095H51.894z"/>
	</g>
	<g>
		<g>
			<path fill="#678AC4" d="M280.177,39.842h-15.813c-1.383-11.61-13.646-21.575-35.688-28.92C207.556,3.879,179.588,0,149.923,0
				C95.904,0,38.604,13.947,35.489,39.842H19.663C8.802,39.842,0,50.235,0,63.053v153.741C0,229.611,8.802,240,19.663,240h260.514
				c10.863,0,19.664-10.389,19.664-23.207V63.053C299.841,50.235,291.041,39.842,280.177,39.842z M47.339,39.842
				c4.169-12.462,42.42-28.236,102.583-28.236c28.451,0,55.116,3.666,75.082,10.324c15.328,5.108,25.46,11.787,27.494,17.912H47.339
				z"/>
		</g>
	</g>
	<g>
		<path fill="#FFFFFF" d="M72.604,135.828v-50.25h9.356v41.95h14.033v8.3H72.604z"/>
		<path fill="#FFFFFF" d="M113.615,136.959c-8.148,0-14.185-5.206-14.185-12.751v-38.63h9.507v38.63c0,2.942,1.66,4.602,4.677,4.602
			c3.093,0,4.753-1.66,4.753-4.602v-38.63h9.13v38.63C127.498,131.754,121.763,136.959,113.615,136.959z"/>
		<path fill="#FFFFFF" d="M154.257,135.828l-9.733-21.428l-3.546-7.998v29.426h-8.602v-50.25h8.073l9.281,21.805l3.319,7.998V85.578
			h8.45v50.25H154.257z"/>
		<path fill="#FFFFFF" d="M180.569,136.959c-8.978,0-14.486-6.036-14.486-13.807V98.254c0-7.772,5.508-13.807,14.486-13.807
			c8.903,0,13.582,5.583,13.582,13.128v6.111h-8.375V97.65c0-2.942-1.66-4.98-5.055-4.98c-3.395,0-5.131,2.037-5.131,4.829v26.408
			c0,2.791,1.735,4.829,5.131,4.829c3.395,0,5.055-2.037,5.055-4.98v-6.036h8.375v6.111
			C194.151,131.376,189.473,136.959,180.569,136.959z"/>
		<path fill="#FFFFFF" d="M218.097,135.828V115.23h-10.487v20.598h-9.356v-50.25h9.356v21.277h10.487V85.578h9.431v50.25H218.097z"
			/>
		<path fill="#FFFFFF" d="M121.092,196.602h-15.844v-50.25h15.693c6.866,0,11.091,3.697,11.091,10.638v5.433
			c0,4.3-1.66,7.545-5.961,8.45c4.527,1.207,6.187,4.301,6.187,8.526v6.564C132.258,192.98,127.958,196.602,121.092,196.602z
			 M123.053,157.669c0-2.263-0.981-3.621-3.319-3.621h-5.056v13.807h4.678c2.414,0,3.697-1.283,3.697-3.923V157.669z
			 M123.204,178.72c0-2.641-1.282-3.999-3.697-3.999h-4.829v14.185h5.282c2.339,0,3.244-1.283,3.244-3.621V178.72z"/>
		<path fill="#FFFFFF" d="M150.581,197.734c-8.752,0-14.26-5.734-14.26-13.732v-25.05c0-7.922,5.508-13.657,14.26-13.657
			c8.828,0,14.26,5.734,14.26,13.657v25.05C164.842,191.999,159.409,197.734,150.581,197.734z M155.41,158.348
			c0-2.942-1.735-4.904-4.829-4.904c-3.018,0-4.753,1.962-4.753,4.904v26.257c0,2.943,1.735,4.905,4.753,4.905
			c3.093,0,4.829-1.962,4.829-4.905V158.348z"/>
		<path fill="#FFFFFF" d="M187.64,196.602l-5.885-17.354l-6.414,17.354h-9.13l10.337-25.351l-9.733-24.898h9.809l5.507,17.354
			l6.036-17.354h9.205l-10.035,24.144l10.11,26.106H187.64z"/>
	</g>
</g>
</svg>
