<?xml version="1.0" encoding="utf-8"?>
<!-- Generator: Adobe Illustrator 19.0.1, SVG Export Plug-In . SVG Version: 6.00 Build 0)  -->
<!DOCTYPE svg PUBLIC "-//W3C//DTD SVG 1.1//EN" "http://www.w3.org/Graphics/SVG/1.1/DTD/svg11.dtd">
<svg version="1.1" xmlns="http://www.w3.org/2000/svg" xmlns:xlink="http://www.w3.org/1999/xlink" x="0px" y="0px"
	 viewBox="0 0 300 300" enable-background="new 0 0 300 300" xml:space="preserve">
<g id="base_template">
</g>
<g id="elements">
</g>
<g id="examples">
	<g id="map">
	</g>
</g>
<g id="graphic">
	<g>
		<path fill="#FFFFFF" d="M66.043,128.012c-3.24,0-5.103,2.105-5.103,5.264v28.186c0,3.159,1.862,5.265,5.103,5.265
			c3.32,0,5.184-2.106,5.184-5.265v-28.186C71.227,130.118,69.364,128.012,66.043,128.012z"/>
		<polygon fill="#FFFFFF" points="149.554,155.793 156.439,155.793 153.199,134.978 		"/>
		<path fill="#FFFFFF" d="M0,99.054v101.892h300V99.054H0z M30.971,175.555c-9.233,0-14.984-5.507-14.984-13.931v-3.726h9.233v3.159
			c0,3.969,1.863,6.156,5.508,6.156c3.563,0,5.346-2.106,5.346-5.427c0-4.292-2.754-7.208-8.1-11.177
			c-5.507-3.969-11.501-9.314-11.501-16.847c0-7.775,5.021-14.498,14.741-14.498c8.504,0,14.174,5.832,14.174,13.85v3.482h-9.152
			v-3.24c0-3.321-1.701-5.75-5.103-5.75c-2.916,0-4.859,1.863-4.859,4.86c0,4.536,2.672,6.884,8.666,11.258
			c6.398,4.779,10.934,9.638,10.934,16.928C45.874,169.319,39.88,175.555,30.971,175.555z M81.351,160.814
			c0,8.585-5.831,14.741-15.308,14.741c-9.396,0-15.308-6.155-15.308-14.741v-26.89c0-8.504,5.912-14.66,15.308-14.66
			c9.477,0,15.308,6.156,15.308,14.66V160.814z M117.315,139.837h-8.99v-6.479c0-3.159-1.781-5.345-5.426-5.345
			c-3.646,0-5.508,2.187-5.508,5.184v28.348c0,2.997,1.862,5.184,5.508,5.184c3.645,0,5.426-2.187,5.426-5.346v-6.479h8.99v6.561
			c0,8.099-5.021,14.093-14.578,14.093c-9.639,0-15.551-6.479-15.551-14.822v-26.728c0-8.342,5.912-14.822,15.551-14.822
			c9.557,0,14.578,5.994,14.578,14.093V139.837z M133.031,174.34h-10.044v-53.942h10.044V174.34z M159.516,174.34l-1.781-10.61
			h-9.558l-1.943,10.61h-9.396l10.853-53.942h11.259l10.771,53.942H159.516z M198.638,174.34H173.53v-53.942h10.044v45.033h15.064
			V174.34z M211.68,174.34h-7.694v-53.942h7.694V174.34z M247.481,123.881l-19.763,43.494h19.033v6.965h-28.753v-3.483
			l20.006-43.413h-18.952v-7.046h28.429V123.881z M284.578,174.907h-1.701c-6.074,0-8.181-1.701-8.181-7.29v-10.529
			c0-3.726-1.7-6.237-5.588-6.237h-7.613v23.488H253.8v-53.942h15.632c8.747,0,12.635,4.374,12.635,12.068v5.913
			c0,5.264-1.782,8.423-6.966,9.476c5.103,0.81,7.209,5.103,7.209,9.395v9.8c0,1.458,0.647,2.106,2.268,2.106V174.907z"/>
		<path fill="#FFFFFF" d="M269.432,127.04h-7.938v17.98h7.127c3.726,0,5.751-2.106,5.751-6.155v-6.561
			C274.373,129.227,273.077,127.04,269.432,127.04z"/>
	</g>
</g>
</svg>
