<?xml version="1.0" encoding="utf-8"?>
<!-- Generator: Adobe Illustrator 19.0.1, SVG Export Plug-In . SVG Version: 6.00 Build 0)  -->
<!DOCTYPE svg PUBLIC "-//W3C//DTD SVG 1.1//EN" "http://www.w3.org/Graphics/SVG/1.1/DTD/svg11.dtd">
<svg version="1.1" xmlns="http://www.w3.org/2000/svg" xmlns:xlink="http://www.w3.org/1999/xlink" x="0px" y="0px"
	 viewBox="0 0 300 300" enable-background="new 0 0 300 300" xml:space="preserve">
<g id="base_template">
</g>
<g id="elements">
</g>
<g id="examples">
	<g id="map">
	</g>
</g>
<g id="graphic">
	<g>
		<rect fill="#678AC4" width="300" height="300"/>
		<g>
			<defs>
				<rect id="SVGID_21_" width="300" height="300"/>
			</defs>
			<clipPath id="SVGID_2_">
				<use xlink:href="#SVGID_21_"  overflow="visible"/>
			</clipPath>
			<g clip-path="url(#SVGID_2_)">
				<g>
					<path fill="#BCCAE5" d="M79.251,5.079c0-4.166,0.786-8.082,2.366-11.744c1.576-3.66,3.718-6.844,6.421-9.548
						c2.704-2.703,5.885-4.842,9.547-6.421c3.66-1.576,7.575-2.366,11.744-2.366c4.166,0,8.083,0.79,11.744,2.366
						c3.66,1.579,6.87,3.718,9.632,6.421c2.76,2.704,4.927,5.888,6.506,9.548c1.576,3.662,2.366,7.578,2.366,11.744
						c0,4.169-0.789,8.085-2.366,11.744c-1.579,3.662-3.746,6.873-6.506,9.632c-2.762,2.762-5.972,4.93-9.632,6.506
						c-3.662,1.579-7.578,2.366-11.744,2.366c-4.169,0-8.085-0.787-11.744-2.366c-3.663-1.576-6.843-3.744-9.547-6.506
						c-2.704-2.759-4.845-5.97-6.421-9.632C80.037,13.164,79.251,9.248,79.251,5.079z"/>
					<path fill="#BCCAE5" d="M160.01-8.693H321V19.02H160.01V-8.693z"/>
					<path fill="#BCCAE5" d="M160.01,31.28H321v27.713H160.01V31.28z"/>
					<path fill="#BCCAE5" d="M160.01,71.253H321v27.713H160.01V71.253z"/>
				</g>
				<g>
					<path fill="#BCCAE5" d="M79.251,170.122c0-4.166,0.786-8.082,2.366-11.744c1.576-3.66,3.718-6.844,6.421-9.548
						c2.704-2.703,5.885-4.842,9.547-6.421c3.66-1.576,7.575-2.366,11.744-2.366c4.166,0,8.083,0.79,11.744,2.366
						c3.66,1.579,6.87,3.718,9.632,6.421c2.76,2.704,4.927,5.888,6.506,9.548c1.576,3.662,2.366,7.578,2.366,11.744
						c0,4.169-0.789,8.085-2.366,11.744c-1.579,3.662-3.746,6.873-6.506,9.632c-2.762,2.762-5.972,4.93-9.632,6.506
						c-3.662,1.579-7.578,2.366-11.744,2.366c-4.169,0-8.085-0.787-11.744-2.366c-3.663-1.576-6.843-3.744-9.547-6.506
						c-2.704-2.759-4.845-5.97-6.421-9.632C80.037,178.207,79.251,174.291,79.251,170.122z"/>
					<path fill="#BCCAE5" d="M160.01,156.35H321v27.713H160.01V156.35z"/>
					<path fill="#BCCAE5" d="M160.01,196.323H321v27.713H160.01V196.323z"/>
					<path fill="#BCCAE5" d="M160.01,236.296H321v27.713H160.01V236.296z"/>
				</g>
			</g>
		</g>
	</g>
</g>
</svg>
