<?xml version="1.0" encoding="utf-8"?>
<!-- Generator: Adobe Illustrator 19.0.1, SVG Export Plug-In . SVG Version: 6.00 Build 0)  -->
<!DOCTYPE svg PUBLIC "-//W3C//DTD SVG 1.1//EN" "http://www.w3.org/Graphics/SVG/1.1/DTD/svg11.dtd">
<svg version="1.1" xmlns="http://www.w3.org/2000/svg" xmlns:xlink="http://www.w3.org/1999/xlink" x="0px" y="0px"
	 viewBox="0 0 300 100" enable-background="new 0 0 300 100" xml:space="preserve">
<g id="base_template">
</g>
<g id="elements">
</g>
<g id="examples">
	<g id="map">
	</g>
</g>
<g id="graphic">
	<g>
		<path fill="#333333" d="M269.432,26.52h-7.938v17.647h7.127c3.726,0,5.751-2.067,5.751-6.041v-6.439
			C274.373,28.667,273.077,26.52,269.432,26.52z"/>
		<path fill="#333333" d="M66.044,27.474c-3.24,0-5.103,2.066-5.103,5.166v27.663c0,3.1,1.862,5.167,5.103,5.167
			c3.32,0,5.184-2.067,5.184-5.167V32.641C71.227,29.541,69.364,27.474,66.044,27.474z"/>
		<polygon fill="#333333" points="149.554,54.739 156.439,54.739 153.199,34.31 		"/>
		<path fill="#333333" d="M0-0.946v100h300v-100H0z M30.971,74.134c-9.233,0-14.984-5.405-14.984-13.672v-3.657h9.233v3.1
			c0,3.895,1.863,6.041,5.508,6.041c3.563,0,5.346-2.067,5.346-5.326c0-4.213-2.754-7.075-8.1-10.969
			c-5.507-3.895-11.501-9.141-11.501-16.534c0-7.631,5.021-14.229,14.741-14.229c8.504,0,14.174,5.723,14.174,13.593V35.9h-9.152
			v-3.18c0-3.259-1.701-5.644-5.103-5.644c-2.916,0-4.859,1.828-4.859,4.77c0,4.451,2.672,6.756,8.666,11.049
			c6.398,4.69,10.934,9.459,10.934,16.613C45.874,68.014,39.881,74.134,30.971,74.134z M81.351,59.668
			c0,8.426-5.831,14.467-15.308,14.467c-9.396,0-15.308-6.041-15.308-14.467V33.277c0-8.346,5.912-14.387,15.308-14.387
			c9.477,0,15.308,6.041,15.308,14.387V59.668z M117.315,39.08h-8.99V32.72c0-3.1-1.781-5.246-5.426-5.246
			c-3.646,0-5.508,2.146-5.508,5.087v27.821c0,2.941,1.862,5.087,5.508,5.087c3.645,0,5.426-2.146,5.426-5.246v-6.359h8.99v6.439
			c0,7.949-5.021,13.831-14.578,13.831c-9.639,0-15.551-6.359-15.551-14.547V33.356c0-8.187,5.912-14.547,15.551-14.547
			c9.557,0,14.578,5.882,14.578,13.831V39.08z M133.031,72.942h-10.044v-52.94h10.044V72.942z M159.516,72.942l-1.781-10.413h-9.558
			l-1.943,10.413h-9.396l10.853-52.94h11.259l10.771,52.94H159.516z M198.638,72.942H173.53v-52.94h10.044v44.196h15.064V72.942z
			 M211.68,72.942h-7.694v-52.94h7.694V72.942z M247.481,23.42l-19.763,42.686h19.033v6.836h-28.753v-3.418l20.006-42.606h-18.952
			v-6.916h28.429V23.42z M284.578,73.499h-1.701c-6.074,0-8.181-1.669-8.181-7.154V56.011c0-3.657-1.7-6.121-5.588-6.121h-7.613
			v23.052H253.8v-52.94h15.632c8.747,0,12.635,4.292,12.635,11.844v5.803c0,5.166-1.782,8.266-6.966,9.3
			c5.103,0.795,7.209,5.008,7.209,9.221v9.618c0,1.431,0.647,2.067,2.268,2.067V73.499z"/>
	</g>
</g>
</svg>
