<?xml version="1.0" encoding="utf-8"?>
<!-- Generator: Adobe Illustrator 19.0.1, SVG Export Plug-In . SVG Version: 6.00 Build 0)  -->
<!DOCTYPE svg PUBLIC "-//W3C//DTD SVG 1.1//EN" "http://www.w3.org/Graphics/SVG/1.1/DTD/svg11.dtd">
<svg version="1.1" xmlns="http://www.w3.org/2000/svg" xmlns:xlink="http://www.w3.org/1999/xlink" x="0px" y="0px"
	 viewBox="0 0 300 300" enable-background="new 0 0 300 300" xml:space="preserve">
<g id="base_template">
</g>
<g id="elements">
</g>
<g id="examples">
	<g id="map">
	</g>
</g>
<g id="graphic">
	<g>
		<rect fill="#678AC4" width="300" height="300"/>
		<g>
			<path fill="#BCCAE5" d="M185.993,160.735h-69.154V91.581c0-12.459,1.344-24.188,4.052-35.198
				c2.696-10.998,6.853-20.656,12.459-28.971c5.607-8.302,12.662-14.948,21.18-19.933C163.039,2.493,173.318,0,185.368,0v31.151
				c-7.064,0-12.878,1.774-17.445,5.298c-4.571,3.532-8.311,8.205-11.213,14.014c-2.911,5.822-4.884,12.362-5.919,19.625
				c-1.039,7.271-1.555,14.437-1.555,21.492h36.757V160.735z M300,160.735h-69.15V91.581c0-12.459,1.339-24.188,4.048-35.198
				c2.696-10.998,6.853-20.656,12.459-28.971c5.607-8.302,12.666-14.948,21.184-19.933C277.046,2.493,287.325,0,299.379,0v31.151
				c-7.068,0-12.878,1.774-17.445,5.298c-4.576,3.532-8.315,8.205-11.213,14.014c-2.911,5.822-4.888,12.362-5.919,19.625
				c-1.044,7.271-1.559,14.437-1.559,21.492H300V160.735z"/>
		</g>
	</g>
</g>
</svg>
