<?xml version="1.0" encoding="utf-8"?>
<!-- Generator: Adobe Illustrator 25.0.0, SVG Export Plug-In . SVG Version: 6.00 Build 0)  -->
<svg version="1.1" id="Layer_1" xmlns="http://www.w3.org/2000/svg" xmlns:xlink="http://www.w3.org/1999/xlink" x="0px" y="0px"
	 viewBox="0 0 518.8 178.2" style="enable-background:new 0 0 518.8 178.2;" xml:space="preserve">
<g>
	<path d="M0,0v178.2h518.8V0H0z M511.2,7.7v162.8H348.7V7.7H511.2z M340.7,7.7v162.8H178.2V7.7H340.7z M170.5,7.7v162.8H7.7V7.7
		H170.5z"/>
	<path d="M73.1,70.9c1.9-2.5,4.6-4.6,8-6.2c3.4-1.7,6.6-2.5,9.6-2.5c6.5,0,11.1,1.7,14,5.1c2.9,3.4,4.3,8.8,4.3,16.3v50.3h20.4V80.3
		c0-11.1-3-19.8-9-26c-6-6.2-14.2-9.3-24.6-9.3c-10.8,0-19,3.2-24.6,9.6l-3.8-8.2H52.7v87.4h20.4V70.9z"/>
	<path d="M241.7,131.7c5.3,2.5,11.1,3.8,17.5,3.8c13.3,0,23.8-3.9,31.5-11.6c7.7-7.7,11.5-18.7,11.5-33c0-30.7-13.9-46-41.8-46
		c-7.5,0-13.7,2.5-18.9,7.3v-5.9h-20.4v111.3h20.4V131.7z M241.7,68.1c3.8-3.8,8.1-5.7,13-5.7c9.4,0,16.1,2.1,20.2,6.3
		c4.1,4.2,6.1,11.5,6.1,21.8c0,9.6-2,16.7-6.1,21.2c-4.1,4.5-10.8,6.7-20.2,6.7c-4.9,0-9.3-1.5-12.9-4.5V68.1z"/>
	<path d="M424,84.2c0-6.2,1.8-11.4,5.5-15.7c3.7-4.3,7.8-6.4,12.5-6.4c4.3,0,8.3,1.1,11.9,3.4l8.6-17.4c-3.7-2.1-9-3.2-15.9-3.2
		c-9.4,0-17,3.3-22.6,9.8v-8.3h-20.4v87.4H424V84.2z"/>
</g>
</svg>
