<?xml version="1.0" encoding="utf-8"?>
<!-- Generator: Adobe Illustrator 19.0.1, SVG Export Plug-In . SVG Version: 6.00 Build 0)  -->
<svg version="1.1" id="Layer_1" xmlns:sketch="http://www.bohemiancoding.com/sketch/ns"
	 xmlns="http://www.w3.org/2000/svg" xmlns:xlink="http://www.w3.org/1999/xlink" x="0px" y="0px" width="305.9px" height="80.3px"
	 viewBox="-151.9 356.7 305.9 80.3" style="enable-background:new -151.9 356.7 305.9 80.3;" xml:space="preserve">
<style type="text/css">
	.st0{fill:#FFFFFF;}
	.st1{fill:none;stroke:#FFFFFF;stroke-width:2;}
</style>
<title>npr_music_line_rev</title>
<desc>Created with Sketch.</desc>
<g id="Page-1" sketch:type="MSPage">
	<g id="npr_music_line_rev" transform="translate(1.000000, 0.000000)" sketch:type="MSLayerGroup">
		<path id="Fill-3" sketch:type="MSShapeGroup" class="st0" d="M62.1,381.8c-0.1,0-0.1,11.7-0.1,17.5c0,4.3,1.6,6,4.8,6
			c2.3,0,4.8-1.4,4.9-6.3l0.2-17.4h7.4l-0.2,18.3c-0.1,7.3-5,11.3-12.3,11.3c-7,0-12.2-3.4-12.2-11.5c0-6.7,0.1-12.1,0.2-18.1h7.3"
			/>
		<path id="Fill-4" sketch:type="MSShapeGroup" class="st0" d="M87.8,404.2c1.7,0.5,4.5,1.2,6.5,1.2c2.3,0,4.7-0.5,4.7-3.1
			s-3.3-2.9-6.6-3.8c-3.3-1-6.7-2.7-6.7-8.2c0-6.1,6.1-8.9,11.5-8.9c3.1,0,6.1,0.7,9,1.8l-2.1,5.2c-1.9-0.7-4.5-1.2-6-1.2
			c-3.5,0-4.8,1.3-4.8,3.1c0,1.1,0.8,2.1,4.1,2.8c7.2,1.6,9.2,4.5,9.2,8.5c0,7-5.6,9.6-11.9,9.6c-2.9,0-6-0.7-8.8-1.6L87.8,404.2"/>
		<path id="Fill-5" sketch:type="MSShapeGroup" class="st0" d="M114.1,381.6h7.2l-0.2,29h-7l-0.3-29"/>
		<path id="Fill-6" sketch:type="MSShapeGroup" class="st0" d="M150.9,388.7c-1.6-1-4.1-1.5-5.9-1.5c-5.3,0-9.4,3.6-9.4,9
			c0,5.1,3.2,9.1,8.5,9.1c2.9,0,4.1-0.7,6.3-1.5l2.2,5.3c-2,1.1-5.3,2.1-9.4,2.1c-9.5,0-15.3-6-15.3-15.2c0-8.8,5.9-14.7,16.2-14.7
			c3.8,0,7,0.9,8.9,2L150.9,388.7"/>
		<path id="Fill-7" sketch:type="MSShapeGroup" class="st0" d="M40.6,382.1c-3.1,0-6.6,0.2-8.2,3.5c0-0.1-1.4-3.5-7.2-3.5
			c-3,0-5.2,0.5-7,2.6c0-0.8,0-1.1,0-3.1h-7.1v29h8v-18.8c0,0-0.4-0.1-0.4-1.1c0.7-1.1,2.4-1.7,3.5-1.7c1.6,0,3.9,0.9,3.9,3v18.6h7
			v-18.8c0-2,2.2-2.8,3.6-2.8c1.4,0,3.4,0.9,3.4,3v18.6h8v-22.5C48.1,384.6,44.2,382.1,40.6,382.1"/>
		<path id="Fill-8" sketch:type="MSShapeGroup" class="st0" d="M39,372.8c-3.1-0.7-6.3-1.1-9.4-1.1c-3.2,0-6.3,0.4-9.5,1
			c-3.1,0.7-6,1.8-9,3.3v-4.6c2-1.7,5.6-3,8.7-3.9c3.1-0.9,6.2-1.4,9.3-1.4c1.5,0,3.1,0.1,4.7,0.3c1.7,0.2,3.3,0.5,4.9,1
			c1.6,0.4,3.4,1,5,1.7c1.5,0.7,2.4,1.5,4.4,2.3v4.8C45.1,374.7,42.1,373.6,39,372.8"/>
		<path id="Fill-9" sketch:type="MSShapeGroup" class="st0" d="M36.5,362c-2.4-0.6-4.7-0.8-7.2-0.8c-2.6,0-5.3,0.3-7.7,0.8
			c-2.5,0.6-4.4,1.4-7.4,2.6v-3.7c3-1.3,4.8-2.4,7.3-3.1c2.4-0.7,5.1-1.1,7.6-1.1c1.2,0,2.5,0.1,3.8,0.3c1.3,0.2,2.6,0.4,3.9,0.8
			c1.3,0.3,2.2,0.8,3.4,1.3s3,1.2,3,1.8v3.7C42.1,363.4,38.9,362.5,36.5,362"/>
		<path id="Fill-10" sketch:type="MSShapeGroup" class="st0" d="M48.1,416.6v5.5c-2,0.9-2.9,1.7-4.4,2.3c-1.5,0.7-3.2,1.2-4.9,1.7
			c-1.6,0.4-3.3,0.8-5,1c-1.7,0.2-3.3,0.3-4.8,0.3c-3.2,0-6.2-0.5-9.3-1.4c-3.1-0.9-6.7-2.2-8.7-3.9v-4.7c3,1.5,5.8,2.6,9,3.3
			c3.1,0.7,6.2,1,9.5,1c3.2,0,6.3-0.4,9.4-1.1c3.1-0.7,6.1-1.9,9-3.4"/>
		<path id="Fill-11" sketch:type="MSShapeGroup" class="st0" d="M43.1,428.6v4.1c0,0.7-1.7,1.3-3,1.9c-1.2,0.5-2.3,1-3.6,1.3
			c-1.3,0.4-2.5,0.6-3.8,0.8S30.2,437,29,437c-2.5,0-5.3-0.4-7.7-1.1c-2.5-0.7-4.2-1.8-7.2-3.1v-3.7c3,1.2,5,2,7.5,2.6
			c2.5,0.6,5.1,0.8,7.7,0.8c2.5,0,4.8-0.3,7.3-0.8c2.4-0.6,5.2-1.4,6.7-2.5"/>
		<path id="Stroke-12" sketch:type="MSShapeGroup" class="st1" d="M-151.9,420.6h49v-49h-49V420.6z M-102.9,420.6h50v-49h-50V420.6z
			 M-52.9,420.6h49v-49h-49V420.6z"/>
		<path id="Fill-13" sketch:type="MSShapeGroup" class="st0" d="M-121.9,408.6V394c0-2.2-0.7-3.7-1.5-4.7s-2.3-1.5-4.2-1.5
			c-0.9,0-1.4,0.2-2.4,0.7s-1.9,1.1-1.9,1.8v18.3h-6v-25h3.4l1.1,2.2c1.6-1.9,4-2.9,7.1-2.9c3,0,5.7,0.9,7.4,2.7
			c1.7,1.8,2.9,4.3,2.9,7.5v15.5H-121.9"/>
		<path id="Fill-14" sketch:type="MSShapeGroup" class="st0" d="M-77.9,409.2c3.9,0,6.9-1.1,9.1-3.4c2.2-2.2,3.3-5.5,3.3-9.6
			c0-8.9-3.9-13.4-12-13.4c-2.2,0-4.4,0.7-5.4,2.1v-1.3h-6v35h6V408C-81.9,408.8-79.8,409.2-77.9,409.2L-77.9,409.2z M-79.3,387.9
			c2.7,0,4.6,0.6,5.8,1.8s1.7,3.3,1.7,6.3c0,2.8-0.6,4.9-1.8,6.2s-3,2-5.8,2c-1.4,0-2.6-0.4-3.6-1.3v-13.4
			C-81.9,388.4-80.7,387.9-79.3,387.9L-79.3,387.9z"/>
		<path id="Fill-15" sketch:type="MSShapeGroup" class="st0" d="M-21.4,388.8c-1.1-0.7-2.2-1-3.5-1c-1.4,0-3,0.6-4,1.9
			c-1.1,1.2-2,2.8-2,4.6v14.3h-6v-25h6v2c2-1.9,4.2-2.9,7-2.9c2,0,3.8,0.3,4.8,0.9L-21.4,388.8"/>
	</g>
</g>
</svg>
