<?xml version="1.0" encoding="utf-8"?>
<!-- Generator: Adobe Illustrator 25.0.0, SVG Export Plug-In . SVG Version: 6.00 Build 0)  -->
<svg version="1.1" id="Layer_1" xmlns="http://www.w3.org/2000/svg" xmlns:xlink="http://www.w3.org/1999/xlink" x="0px" y="0px"
	 viewBox="0 0 296.5 51.5" style="enable-background:new 0 0 296.5 51.5;" xml:space="preserve">
<g>
	<path d="M163,13.2h5.9v3.9c1.7-2.3,3.9-4.4,7.9-4.4c3.7,0,6.3,1.8,7.7,4.5c2-2.7,4.8-4.5,8.7-4.5c5.6,0,9,3.6,9,9.9V39h-5.9V24.4
		c0-4.1-1.9-6.3-5.2-6.3c-3.2,0-5.5,2.2-5.5,6.4V39h-5.9V24.3c0-4-2-6.2-5.2-6.2c-3.3,0-5.5,2.4-5.5,6.4V39H163V13.2z"/>
	<path d="M208,29.6V13.2h5.9v14.6c0,4,2,6.2,5.5,6.2c3.4,0,5.8-2.3,5.8-6.3V13.2h6V39h-6v-4c-1.7,2.4-4.1,4.5-8.1,4.5
		C211.4,39.5,208,35.6,208,29.6z"/>
	<path d="M235.5,35.6l2.6-4c2.8,2.1,5.8,3.2,8.4,3.2c2.5,0,4-1.1,4-2.8v-0.1c0-2-2.7-2.7-5.8-3.6c-3.8-1.1-8.1-2.6-8.1-7.6v-0.1
		c0-4.9,4.1-7.9,9.2-7.9c3.2,0,6.7,1.1,9.5,2.9l-2.3,4.2c-2.5-1.5-5.1-2.4-7.3-2.4c-2.3,0-3.6,1.1-3.6,2.5v0.1
		c0,1.9,2.8,2.7,5.8,3.7c3.8,1.2,8,2.9,8,7.5v0.1c0,5.4-4.2,8.1-9.6,8.1C242.8,39.5,238.7,38.2,235.5,35.6z"/>
	<path d="M261.2,3.7h6.3v5.6h-6.3V3.7z M261.4,13.2h5.9V39h-5.9V13.2z"/>
	<path d="M272.7,26.3L272.7,26.3c0-7.4,5.7-13.6,13.4-13.6c4.8,0,7.9,1.8,10.3,4.4l-3.7,4c-1.8-1.9-3.7-3.2-6.6-3.2
		c-4.3,0-7.5,3.7-7.5,8.2v0.1c0,4.6,3.2,8.2,7.7,8.2c2.8,0,4.8-1.3,6.7-3.2l3.6,3.5c-2.5,2.8-5.5,4.8-10.5,4.8
		C278.3,39.6,272.7,33.6,272.7,26.3z"/>
</g>
<g>
	<path d="M0,0v51.5h150V0H0z M147.8,2.2v47.1h-47V2.2H147.8z M98.5,2.2v47.1h-47V2.2H98.5z M49.3,2.2v47.1H2.2V2.2H49.3z"/>
	<path d="M21.1,20.5c0.6-0.7,1.3-1.3,2.3-1.8c1-0.5,1.9-0.7,2.8-0.7c1.9,0,3.2,0.5,4,1.5c0.8,1,1.2,2.6,1.2,4.7v14.5h5.9V23.2
		c0-3.2-0.9-5.7-2.6-7.5C33,13.9,30.7,13,27.7,13c-3.1,0-5.5,0.9-7.1,2.8l-1.1-2.4h-4.2v25.3h5.9V20.5z"/>
	<path d="M69.9,38.1c1.5,0.7,3.2,1.1,5.1,1.1c3.9,0,6.9-1.1,9.1-3.3c2.2-2.2,3.3-5.4,3.3-9.5c0-8.9-4-13.3-12.1-13.3
		c-2.2,0-4,0.7-5.5,2.1v-1.7H64v32.2h5.9V38.1z M69.9,19.7c1.1-1.1,2.3-1.6,3.8-1.6c2.7,0,4.7,0.6,5.8,1.8c1.2,1.2,1.8,3.3,1.8,6.3
		c0,2.8-0.6,4.8-1.8,6.1c-1.2,1.3-3.1,1.9-5.8,1.9c-1.4,0-2.7-0.4-3.7-1.3V19.7z"/>
	<path d="M122.6,24.4c0-1.8,0.5-3.3,1.6-4.5c1.1-1.2,2.3-1.9,3.6-1.9c1.3,0,2.4,0.3,3.5,1l2.5-5c-1.1-0.6-2.6-0.9-4.6-0.9
		c-2.7,0-4.9,0.9-6.5,2.8v-2.4h-5.9v25.3h5.9V24.4z"/>
</g>
</svg>
