<?xml version="1.0" encoding="utf-8"?>
<!-- Generator: Adobe Illustrator 18.0.0, SVG Export Plug-In . SVG Version: 6.00 Build 0)  -->
<!DOCTYPE svg PUBLIC "-//W3C//DTD SVG 1.1//EN" "http://www.w3.org/Graphics/SVG/1.1/DTD/svg11.dtd">
<svg version="1.1" id="Layer_1" xmlns:sketch="http://www.bohemiancoding.com/sketch/ns"
	 xmlns="http://www.w3.org/2000/svg" xmlns:xlink="http://www.w3.org/1999/xlink" x="0px" y="0px" viewBox="-47 2 150 51"
	 enable-background="new -47 2 150 51" xml:space="preserve">
<title>npr_music_line_rev</title>
<desc>Created with Sketch.</desc>
<g id="Page-1" sketch:type="MSPage">
	<g id="npr_music_line_rev" transform="translate(1.000000, 0.000000)" sketch:type="MSLayerGroup">
		<path id="Stroke-12" sketch:type="MSShapeGroup" fill="none" stroke="#231F20" stroke-width="2" d="M-47,52H2V3h-49V52z M2,52h50
			V3H2V52z M52,52h49V3H52V52z"/>
		<path id="Fill-13" sketch:type="MSShapeGroup" fill="#231F20" d="M-17,40V25.4c0-2.2-0.7-3.7-1.5-4.7c-0.8-1-2.3-1.5-4.2-1.5
			c-0.9,0-1.4,0.2-2.4,0.7c-1,0.5-1.9,1.1-1.9,1.8V40h-6V15h3.4l1.1,2.2c1.6-1.9,4-2.9,7.1-2.9c3,0,5.7,0.9,7.4,2.7
			c1.7,1.8,2.9,4.3,2.9,7.5V40H-17"/>
		<path id="Fill-14" sketch:type="MSShapeGroup" fill="#231F20" d="M27,40.6c3.9,0,6.9-1.1,9.1-3.4c2.2-2.2,3.3-5.5,3.3-9.6
			c0-8.9-3.9-13.4-12-13.4c-2.2,0-4.4,0.7-5.4,2.1V15h-6v35h6V39.4C23,40.2,25.1,40.6,27,40.6L27,40.6z M25.6,19.3
			c2.7,0,4.6,0.6,5.8,1.8c1.2,1.2,1.7,3.3,1.7,6.3c0,2.8-0.6,4.9-1.8,6.2c-1.2,1.3-3,2-5.8,2c-1.4,0-2.6-0.4-3.6-1.3V20.9
			C23,19.8,24.2,19.3,25.6,19.3L25.6,19.3z"/>
		<path id="Fill-15" sketch:type="MSShapeGroup" fill="#231F20" d="M83.5,20.2c-1.1-0.7-2.2-1-3.5-1c-1.4,0-3,0.6-4,1.9
			c-1.1,1.2-2,2.8-2,4.6V40h-6V15h6v2c2-1.9,4.2-2.9,7-2.9c2,0,3.8,0.3,4.8,0.9L83.5,20.2"/>
	</g>
</g>
</svg>
