<?xml version="1.0" encoding="utf-8"?>
<!-- Generator: Adobe Illustrator 19.0.1, SVG Export Plug-In . SVG Version: 6.00 Build 0)  -->
<svg version="1.1" id="Layer_1" xmlns:sketch="http://www.bohemiancoding.com/sketch/ns"
	 xmlns="http://www.w3.org/2000/svg" xmlns:xlink="http://www.w3.org/1999/xlink" x="0px" y="0px" width="150px" height="51px"
	 viewBox="-231 370 150 51" style="enable-background:new -231 370 150 51;" xml:space="preserve">
<style type="text/css">
	.st0{fill:none;stroke:#231F20;stroke-width:2;}
	.st1{fill:#231F20;}
</style>
<title>npr_music_line_rev</title>
<desc>Created with Sketch.</desc>
<g id="Page-1" sketch:type="MSPage">
	<g id="npr_music_line_rev" transform="translate(1.000000, 0.000000)" sketch:type="MSLayerGroup">
		<path id="Stroke-12" sketch:type="MSShapeGroup" class="st0" d="M-231,420h49v-49h-49V420z M-182,420h50v-49h-50V420z M-132,420
			h49v-49h-49V420z"/>
		<path id="Fill-13" sketch:type="MSShapeGroup" class="st1" d="M-201,408v-14.6c0-2.2-0.7-3.7-1.5-4.7s-2.3-1.5-4.2-1.5
			c-0.9,0-1.4,0.2-2.4,0.7s-1.9,1.1-1.9,1.8V408h-6v-25h3.4l1.1,2.2c1.6-1.9,4-2.9,7.1-2.9c3,0,5.7,0.9,7.4,2.7s2.9,4.3,2.9,7.5V408
			H-201"/>
		<path id="Fill-14" sketch:type="MSShapeGroup" class="st1" d="M-157,408.6c3.9,0,6.9-1.1,9.1-3.4c2.2-2.2,3.3-5.5,3.3-9.6
			c0-8.9-3.9-13.4-12-13.4c-2.2,0-4.4,0.7-5.4,2.1V383h-6v35h6v-10.6C-161,408.2-158.9,408.6-157,408.6L-157,408.6z M-158.4,387.3
			c2.7,0,4.6,0.6,5.8,1.8c1.2,1.2,1.7,3.3,1.7,6.3c0,2.8-0.6,4.9-1.8,6.2c-1.2,1.3-3,2-5.8,2c-1.4,0-2.6-0.4-3.6-1.3v-13.4
			C-161,387.8-159.8,387.3-158.4,387.3L-158.4,387.3z"/>
		<path id="Fill-15" sketch:type="MSShapeGroup" class="st1" d="M-100.5,388.2c-1.1-0.7-2.2-1-3.5-1c-1.4,0-3,0.6-4,1.9
			c-1.1,1.2-2,2.8-2,4.6V408h-6v-25h6v2c2-1.9,4.2-2.9,7-2.9c2,0,3.8,0.3,4.8,0.9L-100.5,388.2"/>
	</g>
</g>
</svg>
