<?xml version="1.0" encoding="utf-8"?>
<!-- Generator: Adobe Illustrator 19.0.1, SVG Export Plug-In . SVG Version: 6.00 Build 0)  -->
<svg version="1.1" id="Layer_1" xmlns:sketch="http://www.bohemiancoding.com/sketch/ns"
	 xmlns="http://www.w3.org/2000/svg" xmlns:xlink="http://www.w3.org/1999/xlink" x="0px" y="0px" width="150px" height="51px"
	 viewBox="-230 371 150 51" style="enable-background:new -230 371 150 51;" xml:space="preserve">
<style type="text/css">
	.st0{fill:none;stroke:#FFFFFF;stroke-width:2;}
	.st1{fill:#FFFFFF;}
</style>
<title>logo-npr-white</title>
<desc>Created with Sketch.</desc>
<g id="Page-1_2_" sketch:type="MSPage">
	<g id="logo-npr-white" transform="translate(1.000000, 1.000000)" sketch:type="MSLayerGroup">
		<g id="Page-1_1_" sketch:type="MSShapeGroup">
			<g id="logo-music-white">
				<g id="Page-1">
					<g id="npr_music_line_rev">
						<path id="Stroke-12" class="st0" d="M-230,420h49v-49h-49V420L-230,420z M-181,420h50v-49h-50V420L-181,420z M-131,420h49v-49
							h-49V420L-131,420z"/>
						<path id="Fill-13" class="st1" d="M-200,408v-14.6c0-2.2-0.7-3.7-1.5-4.7s-2.3-1.5-4.2-1.5c-0.9,0-1.4,0.2-2.4,0.7
							s-1.9,1.1-1.9,1.8V408h-6v-25h3.4l1.1,2.2c1.6-1.9,4-2.9,7.1-2.9c3,0,5.7,0.9,7.4,2.7s2.9,4.3,2.9,7.5V408H-200"/>
						<path id="Fill-14" class="st1" d="M-156,408.6c3.9,0,6.9-1.1,9.1-3.4c2.2-2.2,3.3-5.5,3.3-9.6c0-8.9-3.9-13.4-12-13.4
							c-2.2,0-4.4,0.7-5.4,2.1V383h-6v35h6v-10.6C-160,408.2-157.9,408.6-156,408.6L-156,408.6L-156,408.6z M-157.4,387.3
							c2.7,0,4.6,0.6,5.8,1.8c1.2,1.2,1.7,3.3,1.7,6.3c0,2.8-0.6,4.9-1.8,6.2c-1.2,1.3-3,2-5.8,2c-1.4,0-2.6-0.4-3.6-1.3v-13.4
							C-160,387.8-158.8,387.3-157.4,387.3L-157.4,387.3L-157.4,387.3z"/>
						<path id="Fill-15" class="st1" d="M-99.5,388.2c-1.1-0.7-2.2-1-3.5-1c-1.4,0-3,0.6-4,1.9c-1.1,1.2-2,2.8-2,4.6V408h-6v-25h6v2
							c2-1.9,4.2-2.9,7-2.9c2,0,3.8,0.3,4.8,0.9L-99.5,388.2"/>
					</g>
				</g>
			</g>
		</g>
	</g>
</g>
</svg>
