<?xml version="1.0" encoding="utf-8"?>
<!-- Generator: Adobe Illustrator 18.0.0, SVG Export Plug-In . SVG Version: 6.00 Build 0)  -->
<!DOCTYPE svg PUBLIC "-//W3C//DTD SVG 1.1//EN" "http://www.w3.org/Graphics/SVG/1.1/DTD/svg11.dtd">
<svg version="1.1" id="Layer_1" xmlns:sketch="http://www.bohemiancoding.com/sketch/ns"
	 xmlns="http://www.w3.org/2000/svg" xmlns:xlink="http://www.w3.org/1999/xlink" x="0px" y="0px" viewBox="-47 -12 306 80.3"
	 enable-background="new -47 -12 306 80.3" xml:space="preserve">
<title>npr_music_line_rev</title>
<desc>Created with Sketch.</desc>
<g id="Page-1" sketch:type="MSPage">
	<g id="npr_music_line_rev" transform="translate(1.000000, 0.000000)" sketch:type="MSLayerGroup">
		<path id="Fill-3" sketch:type="MSShapeGroup" d="M167,13.2c-0.1,0-0.1,11.7-0.1,17.5c0,4.3,1.6,6,4.8,6c2.3,0,4.8-1.4,4.9-6.3
			l0.2-17.4h7.4L184,31.3c-0.1,7.3-5,11.3-12.3,11.3c-7,0-12.2-3.4-12.2-11.5c0-6.7,0.1-12.1,0.2-18.1h7.3"/>
		<path id="Fill-4" sketch:type="MSShapeGroup" d="M192.7,35.6c1.7,0.5,4.5,1.2,6.5,1.2c2.3,0,4.7-0.5,4.7-3.1
			c0-2.6-3.3-2.9-6.6-3.8c-3.3-1-6.7-2.7-6.7-8.2c0-6.1,6.1-8.9,11.5-8.9c3.1,0,6.1,0.7,9,1.8l-2.1,5.2c-1.9-0.7-4.5-1.2-6-1.2
			c-3.5,0-4.8,1.3-4.8,3.1c0,1.1,0.8,2.1,4.1,2.8c7.2,1.6,9.2,4.5,9.2,8.5c0,7-5.6,9.6-11.9,9.6c-2.9,0-6-0.7-8.8-1.6L192.7,35.6"/>
		<path id="Fill-5" sketch:type="MSShapeGroup" d="M219,13h7.2l-0.2,29h-7l-0.3-29"/>
		<path id="Fill-6" sketch:type="MSShapeGroup" d="M255.8,20.1c-1.6-1-4.1-1.5-5.9-1.5c-5.3,0-9.4,3.6-9.4,9c0,5.1,3.2,9.1,8.5,9.1
			c2.9,0,4.1-0.7,6.3-1.5l2.2,5.3c-2,1.1-5.3,2.1-9.4,2.1c-9.5,0-15.3-6-15.3-15.2c0-8.8,5.9-14.7,16.2-14.7c3.8,0,7,0.9,8.9,2
			L255.8,20.1"/>
		<path id="Fill-7" sketch:type="MSShapeGroup" d="M145.5,13.5c-3.1,0-6.6,0.2-8.2,3.5c0-0.1-1.4-3.5-7.2-3.5c-3,0-5.2,0.5-7,2.6
			c0-0.8,0-1.1,0-3.1H116v29h8V23.2c0,0-0.4-0.1-0.4-1.1c0.7-1.1,2.4-1.7,3.5-1.7c1.6,0,3.9,0.9,3.9,3V42h7V23.2
			c0-2,2.2-2.8,3.6-2.8c1.4,0,3.4,0.9,3.4,3V42h8V19.5C153,16,149.1,13.5,145.5,13.5"/>
		<path id="Fill-8" sketch:type="MSShapeGroup" d="M143.9,4.2c-3.1-0.7-6.3-1.1-9.4-1.1c-3.2,0-6.3,0.4-9.5,1c-3.1,0.7-6,1.8-9,3.3
			V2.8c2-1.7,5.6-3,8.7-3.9c3.1-0.9,6.2-1.4,9.3-1.4c1.5,0,3.1,0.1,4.7,0.3c1.7,0.2,3.3,0.5,4.9,1c1.6,0.4,3.4,1,5,1.7
			c1.5,0.7,2.4,1.5,4.4,2.3v4.8C150,6.1,147,5,143.9,4.2"/>
		<path id="Fill-9" sketch:type="MSShapeGroup" d="M141.4-6.6c-2.4-0.6-4.7-0.8-7.2-0.8c-2.6,0-5.3,0.3-7.7,0.8
			c-2.5,0.6-4.4,1.4-7.4,2.6v-3.7c3-1.3,4.8-2.4,7.3-3.1c2.4-0.7,5.1-1.1,7.6-1.1c1.2,0,2.5,0.1,3.8,0.3c1.3,0.2,2.6,0.4,3.9,0.8
			c1.3,0.3,2.2,0.8,3.4,1.3c1.2,0.5,3,1.2,3,1.8V-4C147-5.2,143.8-6.1,141.4-6.6"/>
		<path id="Fill-10" sketch:type="MSShapeGroup" d="M153,48v5.5c-2,0.9-2.9,1.7-4.4,2.3c-1.5,0.7-3.2,1.2-4.9,1.7
			c-1.6,0.4-3.3,0.8-5,1c-1.7,0.2-3.3,0.3-4.8,0.3c-3.2,0-6.2-0.5-9.3-1.4c-3.1-0.9-6.7-2.2-8.7-3.9v-4.7c3,1.5,5.8,2.6,9,3.3
			c3.1,0.7,6.2,1,9.5,1c3.2,0,6.3-0.4,9.4-1.1c3.1-0.7,6.1-1.9,9-3.4"/>
		<path id="Fill-11" sketch:type="MSShapeGroup" d="M148,60v4.1c0,0.7-1.7,1.3-3,1.9c-1.2,0.5-2.3,1-3.6,1.3
			c-1.3,0.4-2.5,0.6-3.8,0.8c-1.3,0.2-2.5,0.3-3.7,0.3c-2.5,0-5.3-0.4-7.7-1.1c-2.5-0.7-4.2-1.8-7.2-3.1v-3.7c3,1.2,5,2,7.5,2.6
			c2.5,0.6,5.1,0.8,7.7,0.8c2.5,0,4.8-0.3,7.3-0.8c2.4-0.6,5.2-1.4,6.7-2.5"/>
		<path id="Stroke-12" sketch:type="MSShapeGroup" fill="none" stroke="#000000" stroke-width="2" d="M-47,52H2V3h-49V52z M2,52h50
			V3H2V52z M52,52h49V3H52V52z"/>
		<path id="Fill-13" sketch:type="MSShapeGroup" d="M-17,40V25.4c0-2.2-0.7-3.7-1.5-4.7c-0.8-1-2.3-1.5-4.2-1.5
			c-0.9,0-1.4,0.2-2.4,0.7c-1,0.5-1.9,1.1-1.9,1.8V40h-6V15h3.4l1.1,2.2c1.6-1.9,4-2.9,7.1-2.9c3,0,5.7,0.9,7.4,2.7
			c1.7,1.8,2.9,4.3,2.9,7.5V40H-17"/>
		<path id="Fill-14" sketch:type="MSShapeGroup" d="M27,40.6c3.9,0,6.9-1.1,9.1-3.4c2.2-2.2,3.3-5.5,3.3-9.6c0-8.9-3.9-13.4-12-13.4
			c-2.2,0-4.4,0.7-5.4,2.1V15h-6v35h6V39.4C23,40.2,25.1,40.6,27,40.6L27,40.6z M25.6,19.3c2.7,0,4.6,0.6,5.8,1.8
			c1.2,1.2,1.7,3.3,1.7,6.3c0,2.8-0.6,4.9-1.8,6.2c-1.2,1.3-3,2-5.8,2c-1.4,0-2.6-0.4-3.6-1.3V20.9C23,19.8,24.2,19.3,25.6,19.3
			L25.6,19.3z"/>
		<path id="Fill-15" sketch:type="MSShapeGroup" d="M83.5,20.2c-1.1-0.7-2.2-1-3.5-1c-1.4,0-3,0.6-4,1.9c-1.1,1.2-2,2.8-2,4.6V40h-6
			V15h6v2c2-1.9,4.2-2.9,7-2.9c2,0,3.8,0.3,4.8,0.9L83.5,20.2"/>
	</g>
</g>
</svg>
