<?xml version="1.0" encoding="utf-8"?>
<!-- Generator: Adobe Illustrator 18.1.1, SVG Export Plug-In . SVG Version: 6.00 Build 0)  -->
<svg version="1.1" id="Layer_1" xmlns="http://www.w3.org/2000/svg" xmlns:xlink="http://www.w3.org/1999/xlink" x="0px" y="0px"
	 viewBox="0 0 396 108" enable-background="new 0 0 396 108" xml:space="preserve">
<g>
	<line fill="none" x1="84" y1="0" x2="84" y2="108"/>
	<line fill="none" x1="96" y1="0" x2="96" y2="108"/>
	<line fill="none" x1="72" y1="0" x2="72" y2="108"/>
	<line fill="none" x1="60" y1="0" x2="60" y2="108"/>
	<line fill="none" x1="48" y1="0" x2="48" y2="108"/>
	<line fill="none" x1="36" y1="0" x2="36" y2="108"/>
	<line fill="none" x1="24" y1="0" x2="24" y2="108"/>
	<line fill="none" x1="12" y1="0" x2="12" y2="108"/>
	<line fill="none" x1="0" y1="0" x2="0" y2="108"/>
	<line fill="none" x1="108" y1="0" x2="108" y2="108"/>
	<line fill="none" x1="108" y1="84" x2="0" y2="84"/>
	<line fill="none" x1="108" y1="96" x2="0" y2="96"/>
	<line fill="none" x1="108" y1="108" x2="0" y2="108"/>
	<line fill="none" x1="108" y1="72" x2="0" y2="72"/>
	<line fill="none" x1="108" y1="60" x2="0" y2="60"/>
	<line fill="none" x1="108" y1="48" x2="0" y2="48"/>
	<line fill="none" x1="108" y1="36" x2="0" y2="36"/>
	<line fill="none" x1="108" y1="24" x2="0" y2="24"/>
	<line fill="none" x1="108" y1="12" x2="0" y2="12"/>
	<line fill="none" x1="108" y1="0" x2="0" y2="0"/>
	<line fill="none" x1="192" y1="0" x2="192" y2="108"/>
	<line fill="none" x1="204" y1="0" x2="204" y2="108"/>
	<line fill="none" x1="180" y1="0" x2="180" y2="108"/>
	<line fill="none" x1="168" y1="0" x2="168" y2="108"/>
	<line fill="none" x1="156" y1="0" x2="156" y2="108"/>
	<line fill="none" x1="144" y1="0" x2="144" y2="108"/>
	<line fill="none" x1="132" y1="0" x2="132" y2="108"/>
	<line fill="none" x1="120" y1="0" x2="120" y2="108"/>
	<line fill="none" x1="108" y1="0" x2="108" y2="108"/>
	<line fill="none" x1="216" y1="0" x2="216" y2="108"/>
	<line fill="none" x1="216" y1="84" x2="108" y2="84"/>
	<line fill="none" x1="216" y1="96" x2="108" y2="96"/>
	<line fill="none" x1="216" y1="108" x2="108" y2="108"/>
	<line fill="none" x1="216" y1="72" x2="108" y2="72"/>
	<line fill="none" x1="216" y1="60" x2="108" y2="60"/>
	<line fill="none" x1="216" y1="48" x2="108" y2="48"/>
	<line fill="none" x1="216" y1="36" x2="108" y2="36"/>
	<line fill="none" x1="216" y1="24" x2="108" y2="24"/>
	<line fill="none" x1="216" y1="12" x2="108" y2="12"/>
	<line fill="none" x1="216" y1="0" x2="108" y2="0"/>
	<line fill="none" x1="300" y1="0" x2="300" y2="108"/>
	<line fill="none" x1="312" y1="0" x2="312" y2="108"/>
	<line fill="none" x1="288" y1="0" x2="288" y2="108"/>
	<line fill="none" x1="276" y1="0" x2="276" y2="108"/>
	<line fill="none" x1="264" y1="0" x2="264" y2="108"/>
	<line fill="none" x1="252" y1="0" x2="252" y2="108"/>
	<line fill="none" x1="240" y1="0" x2="240" y2="108"/>
	<line fill="none" x1="228" y1="0" x2="228" y2="108"/>
	<line fill="none" x1="216" y1="0" x2="216" y2="108"/>
	<line fill="none" x1="324" y1="0" x2="324" y2="108"/>
	<line fill="none" x1="324" y1="84" x2="216" y2="84"/>
	<line fill="none" x1="324" y1="96" x2="216" y2="96"/>
	<line fill="none" x1="324" y1="108" x2="216" y2="108"/>
	<line fill="none" x1="324" y1="72" x2="216" y2="72"/>
	<line fill="none" x1="324" y1="60" x2="216" y2="60"/>
	<line fill="none" x1="324" y1="48" x2="216" y2="48"/>
	<line fill="none" x1="324" y1="36" x2="216" y2="36"/>
	<line fill="none" x1="324" y1="24" x2="216" y2="24"/>
	<line fill="none" x1="324" y1="12" x2="216" y2="12"/>
	<line fill="none" x1="324" y1="0" x2="216" y2="0"/>
	<line fill="none" x1="396" y1="0" x2="396" y2="108"/>
	<line fill="none" x1="384" y1="0" x2="384" y2="108"/>
	<line fill="none" x1="372" y1="0" x2="372" y2="108"/>
	<line fill="none" x1="360" y1="0" x2="360" y2="108"/>
	<line fill="none" x1="348" y1="0" x2="348" y2="108"/>
	<line fill="none" x1="336" y1="0" x2="336" y2="108"/>
	<line fill="none" x1="324" y1="0" x2="324" y2="108"/>
	<line fill="none" x1="396" y1="84" x2="324" y2="84"/>
	<line fill="none" x1="396" y1="96" x2="324" y2="96"/>
	<line fill="none" x1="396" y1="108" x2="324" y2="108"/>
	<line fill="none" x1="396" y1="72" x2="324" y2="72"/>
	<line fill="none" x1="396" y1="60" x2="324" y2="60"/>
	<line fill="none" x1="396" y1="48" x2="324" y2="48"/>
	<line fill="none" x1="396" y1="36" x2="324" y2="36"/>
	<line fill="none" x1="396" y1="24" x2="324" y2="24"/>
	<line fill="none" x1="396" y1="12" x2="324" y2="12"/>
	<line fill="none" x1="396" y1="0" x2="324" y2="0"/>
</g>
<g>
	<g>
		<rect x="96.1" y="95.9" fill="#9D9FA2" width="2" height="2"/>
		<rect x="84.1" y="95.9" fill="#9D9FA2" width="2" height="2"/>
		<rect x="48.1" y="95.9" fill="#9D9FA2" width="2" height="2"/>
		<rect x="60.1" y="95.9" fill="#9D9FA2" width="2" height="2"/>
		<rect x="72.1" y="95.9" fill="#9D9FA2" width="2" height="2"/>
		<rect x="36.1" y="95.9" fill="#9D9FA2" width="2" height="2"/>
		<rect x="24.1" y="95.9" fill="#9D9FA2" width="2" height="2"/>
		<rect x="12.1" y="95.9" fill="#9D9FA2" width="2" height="2"/>
		<g>
			<g>
				<g>
					<path d="M60.1,57.5h2.3v6.4h-2.3V57.5z"/>
				</g>
				<g>
					<path d="M70.2,57.5h2.2l2.1,3.5h0.1c-0.1-0.5-0.2-1.1-0.2-1.6v-1.9h2.2v6.4h-2.2l-2-3.3h-0.1c0.1,0.4,0.1,0.9,0.1,1.3v2.1h-2.2
						V57.5z"/>
				</g>
				<g>
					<path d="M83.5,61.6l0.1,0.1c0.4,0.3,0.9,0.6,1.4,0.6c0.2,0,0.6-0.1,0.6-0.4c0-0.3-0.3-0.3-0.5-0.4l-0.5-0.1
						c-0.9-0.2-1.7-0.7-1.7-1.7c0-1.5,1.4-2.4,2.8-2.4c0.7,0,1.4,0.2,2,0.6l-0.6,1.6c-0.4-0.3-0.8-0.5-1.3-0.5
						c-0.2,0-0.5,0.1-0.5,0.3c0,0.2,0.3,0.3,0.5,0.3l0.5,0.1c1,0.2,1.7,0.7,1.7,1.8c0,1.5-1.4,2.3-2.8,2.3c-0.8,0-1.7-0.2-2.5-0.6
						L83.5,61.6z"/>
				</g>
				<g>
					<path d="M95.2,57.5h4.9v2.1l-1.3-0.1v4.4h-2.3v-4.4l-1.3,0.1V57.5z"/>
				</g>
				<g>
					<path d="M108.1,57.5h2.3v6.4h-2.3V57.5z"/>
				</g>
				<g>
					<path d="M118.7,57.5h4.9v2.1l-1.3-0.1v4.4H120v-4.4l-1.3,0.1V57.5z"/>
				</g>
				<g>
					<path d="M136.5,57.5v3.8c0,1.9-1.2,2.7-3,2.7c-1.8,0-3-0.8-3-2.7v-3.8h2.3v3.6c0,0.5,0,0.9,0.6,0.9s0.6-0.4,0.6-0.9v-3.6H136.5
						z"/>
				</g>
				<g>
					<path d="M142.7,57.5h4.9v2.1l-1.3-0.1v4.4h-2.3v-4.4l-1.3,0.1V57.5z"/>
				</g>
				<g>
					<path d="M155.1,57.5h4.3v1.7h-2v0.6h1.8v1.7h-1.8v0.6h2v1.7h-4.4V57.5z"/>
				</g>
			</g>
			<g>
				<g>
					<path fill="#00AEEF" d="M62.5,30.6V42c0,5.6-3.5,8.2-8.9,8.2s-8.9-2.6-8.9-8.2V30.6h7v10.8c0,1.5,0.1,2.8,1.9,2.8
						c1.9,0,1.9-1.3,1.9-2.8V30.6H62.5z"/>
				</g>
				<g>
					<path fill="#00AEEF" d="M69.8,30.6h8.5c4.4,0,8,1.8,8,6.7c0,2.9-1.1,4.2-3.7,5v0.2c0.4,0.3,0.8,0.6,1.2,1.2l4.2,6.3h-8.1
						l-3.1-6.2h-0.1v6.2h-6.9V30.6z M76.7,39.1h0.5c1.2,0,2.3-0.2,2.3-1.6c0-1.5-1.1-1.7-2.3-1.7h-0.5V39.1z"/>
				</g>
				<g>
					<path fill="#00AEEF" d="M93.3,30.6h8.2c3.7,0,7.6,0.9,7.6,5.4c0,1.7-0.8,3.4-2.5,3.9V40c2.1,0.7,3.4,2.3,3.4,4.6
						c0,4-3.7,5.3-7.1,5.3h-9.6V30.6z M100.5,38c1,0,2.2-0.1,2.2-1.4c0-1.4-1.3-1.3-2.3-1.3h-0.5V38H100.5z M99.8,45.3h0.8
						c1.2,0,2.8,0,2.8-1.6c0-1.6-1.8-1.6-2.9-1.6h-0.7V45.3z"/>
				</g>
				<g>
					<path fill="#00AEEF" d="M121.4,49.9H114l6.7-19.3h7.8l6.9,19.3h-7.4l-0.6-2.4H122L121.4,49.9z M126.1,42.9l-0.8-3.4
						c-0.2-0.8-0.3-1.7-0.5-2.5h-0.3l-1.3,5.9H126.1z"/>
				</g>
				<g>
					<path fill="#00AEEF" d="M140,30.6h6.7l6.3,10.7h0.2c-0.3-1.6-0.6-3.3-0.6-4.9v-5.8h6.7v19.3h-6.7l-6.2-10.2h-0.2
						c0.2,1.3,0.4,2.6,0.4,3.9v6.3H140V30.6z"/>
				</g>
			</g>
			<g>
				<rect x="84.1" y="23.9" fill="#9D9FA2" width="2" height="2"/>
				<rect x="96.1" y="23.9" fill="#9D9FA2" width="2" height="2"/>
				<rect x="48.1" y="23.9" fill="#9D9FA2" width="2" height="2"/>
				<rect x="60.1" y="23.9" fill="#9D9FA2" width="2" height="2"/>
				<rect x="72.1" y="23.9" fill="#9D9FA2" width="2" height="2"/>
				<rect x="36.1" y="23.9" fill="#9D9FA2" width="2" height="2"/>
				<rect x="84.1" y="71.9" fill="#9D9FA2" width="2" height="2"/>
				<rect x="96.1" y="71.9" fill="#9D9FA2" width="2" height="2"/>
				<rect x="48.1" y="71.9" fill="#9D9FA2" width="2" height="2"/>
				<rect x="60.1" y="71.9" fill="#9D9FA2" width="2" height="2"/>
				<rect x="72.1" y="71.9" fill="#9D9FA2" width="2" height="2"/>
				<rect x="36.1" y="71.9" fill="#9D9FA2" width="2" height="2"/>
				<rect x="36.1" y="59.9" fill="#9D9FA2" width="2" height="2"/>
				<rect x="36.1" y="47.9" fill="#9D9FA2" width="2" height="2"/>
				<rect x="36.1" y="35.9" fill="#9D9FA2" width="2" height="2"/>
				<rect x="72.1" y="23.9" fill="#9D9FA2" width="2" height="2"/>
				<rect x="84.1" y="23.9" fill="#9D9FA2" width="2" height="2"/>
				<rect x="96.1" y="23.9" fill="#9D9FA2" width="2" height="2"/>
				<rect x="36.1" y="23.9" fill="#9D9FA2" width="2" height="2"/>
				<rect x="48.1" y="23.9" fill="#9D9FA2" width="2" height="2"/>
				<rect x="60.1" y="23.9" fill="#9D9FA2" width="2" height="2"/>
				<rect x="24.1" y="23.9" fill="#9D9FA2" width="2" height="2"/>
				<rect x="24.1" y="71.9" fill="#9D9FA2" width="2" height="2"/>
				<rect x="24.1" y="59.9" fill="#9D9FA2" width="2" height="2"/>
				<rect x="24.1" y="47.9" fill="#9D9FA2" width="2" height="2"/>
				<rect x="24.1" y="35.9" fill="#9D9FA2" width="2" height="2"/>
				<rect x="60.1" y="23.9" fill="#9D9FA2" width="2" height="2"/>
				<rect x="72.1" y="23.9" fill="#9D9FA2" width="2" height="2"/>
				<rect x="84.1" y="23.9" fill="#9D9FA2" width="2" height="2"/>
				<rect x="96.1" y="23.9" fill="#9D9FA2" width="2" height="2"/>
				<rect x="24.1" y="23.9" fill="#9D9FA2" width="2" height="2"/>
				<rect x="36.1" y="23.9" fill="#9D9FA2" width="2" height="2"/>
				<rect x="48.1" y="23.9" fill="#9D9FA2" width="2" height="2"/>
				<rect x="84.1" y="83.9" fill="#9D9FA2" width="2" height="2"/>
				<rect x="96.1" y="83.9" fill="#9D9FA2" width="2" height="2"/>
				<rect x="48.1" y="83.9" fill="#9D9FA2" width="2" height="2"/>
				<rect x="60.1" y="83.9" fill="#9D9FA2" width="2" height="2"/>
				<rect x="72.1" y="83.9" fill="#9D9FA2" width="2" height="2"/>
				<rect x="36.1" y="83.9" fill="#9D9FA2" width="2" height="2"/>
				<rect x="24.1" y="83.9" fill="#9D9FA2" width="2" height="2"/>
				<rect x="12.1" y="23.9" fill="#9D9FA2" width="2" height="2"/>
				<rect x="12.1" y="71.9" fill="#9D9FA2" width="2" height="2"/>
				<rect x="12.1" y="83.9" fill="#9D9FA2" width="2" height="2"/>
				<rect x="12.1" y="59.9" fill="#9D9FA2" width="2" height="2"/>
				<rect x="12.1" y="47.9" fill="#9D9FA2" width="2" height="2"/>
				<rect x="12.1" y="35.9" fill="#9D9FA2" width="2" height="2"/>
				<rect x="48.1" y="59.9" fill="#9D9FA2" width="2" height="2"/>
				<g>
					<rect x="84.1" y="11.9" fill="#9D9FA2" width="2" height="2"/>
					<rect x="96.1" y="11.9" fill="#9D9FA2" width="2" height="2"/>
					<rect x="48.1" y="11.9" fill="#9D9FA2" width="2" height="2"/>
					<rect x="60.1" y="11.9" fill="#9D9FA2" width="2" height="2"/>
					<rect x="72.1" y="11.9" fill="#9D9FA2" width="2" height="2"/>
					<rect x="36.1" y="11.9" fill="#9D9FA2" width="2" height="2"/>
					<rect x="24.1" y="11.9" fill="#9D9FA2" width="2" height="2"/>
					<rect x="12.1" y="11.9" fill="#9D9FA2" width="2" height="2"/>
				</g>
			</g>
		</g>
	</g>
	<g>
		<g>
			<path fill="#9D9FA2" d="M179,57.5h4.3v1.7h-2v0.6h1.8v1.7h-1.8v0.6h2v1.7H179V57.5z"/>
		</g>
		<g>
			<path fill="#9D9FA2" d="M191.6,57.5h2.3v4.3h1.9v2h-4.3V57.5z"/>
		</g>
		<g>
			<path fill="#9D9FA2" d="M203.2,57.5h4.3v1.7h-2v0.6h1.8v1.7h-1.8v0.6h2v1.7h-4.4V57.5z"/>
		</g>
		<g>
			<path fill="#9D9FA2" d="M250.8,57.5h4.3v1.7h-2v0.6h1.8v1.7h-1.8v0.6h2v1.7h-4.4V57.5z"/>
		</g>
		<g>
			<path fill="#9D9FA2" d="M221.2,57.5l-2.5,6.4h-2l-2.5-6.4h2.4l0.8,2.9c0.1,0.3,0.2,0.6,0.2,0.9h0.1c0-0.3,0.1-0.6,0.2-0.9
				l0.8-2.9H221.2z"/>
		</g>
		<g>
			<path fill="#9D9FA2" d="M228.5,63.9H226l2.2-6.4h2.6l2.3,6.4h-2.5l-0.2-0.8h-1.8L228.5,63.9z M230,61.6l-0.3-1.1
				c-0.1-0.3-0.1-0.5-0.2-0.8h-0.1l-0.4,1.9H230z"/>
		</g>
		<g>
			<path fill="#9D9FA2" d="M238.7,57.5h4.9v2.1l-1.3-0.1v4.4h-2.3v-4.4l-1.3,0.1V57.5z"/>
		</g>
		<g>
			<path fill="#9D9FA2" d="M322.6,57.5h2.4c2.1,0,3.8,0.9,3.8,3.3c0,1.9-1.3,3.1-3.2,3.1h-2.9V57.5z M324.9,62h0.1
				c0.8,0,1.4-0.4,1.4-1.2c0-0.9-0.5-1.3-1.4-1.3h-0.1V62z"/>
		</g>
		<g>
			<path fill="#9D9FA2" d="M335.2,57.5h4.3v1.7h-2v0.6h1.8v1.7h-1.8v0.6h2v1.7h-4.4V57.5z"/>
		</g>
		<g>
			<path fill="#9D9FA2" d="M382.8,57.5h4.3v1.7h-2v0.6h1.8v1.7h-1.8v0.6h2v1.7h-4.4V57.5z"/>
		</g>
		<g>
			<path fill="#9D9FA2" d="M346.8,57.5h2.7c1.2,0,2.5,0.3,2.5,1.8c0,0.6-0.3,1.1-0.8,1.3v0.1c0.7,0.2,1.1,0.8,1.1,1.5
				c0,1.3-1.2,1.8-2.3,1.8h-3.2V57.5z M349.2,60c0.3,0,0.7,0,0.7-0.5c0-0.5-0.4-0.4-0.8-0.4H349V60H349.2z M349,62.4h0.3
				c0.4,0,0.9,0,0.9-0.5c0-0.5-0.6-0.5-1-0.5H349V62.4z"/>
		</g>
		<g>
			<path fill="#9D9FA2" d="M360.5,63.9H358l2.2-6.4h2.6l2.3,6.4h-2.5l-0.2-0.8h-1.8L360.5,63.9z M362,61.6l-0.3-1.1
				c-0.1-0.3-0.1-0.5-0.2-0.8h-0.1l-0.4,1.9H362z"/>
		</g>
		<g>
			<path fill="#9D9FA2" d="M370.6,57.5h4.9v2.1l-1.3-0.1v4.4h-2.3v-4.4l-1.3,0.1V57.5z"/>
		</g>
		<rect x="312.1" y="59.9" fill="#9D9FA2" width="2" height="2"/>
		<g>
			<path fill="#9D9FA2" d="M275.2,57.5h4.9v2.1l-1.3-0.1v4.4h-2.3v-4.4l-1.3,0.1V57.5z"/>
		</g>
		<g>
			<path fill="#9D9FA2" d="M286.5,57.5h2.2v2.1h1.4v-2.1h2.2v6.4h-2.2v-2.2h-1.4v2.2h-2.2V57.5z"/>
		</g>
		<g>
			<path fill="#9D9FA2" d="M298.8,57.5h4.3v1.7h-2v0.6h1.8v1.7h-1.8v0.6h2v1.7h-4.4V57.5z"/>
		</g>
		<rect x="264.1" y="59.9" fill="#9D9FA2" width="2" height="2"/>
		<rect x="168.1" y="59.9" fill="#9D9FA2" width="2" height="2"/>
		<rect x="168.1" y="59.9" fill="#9D9FA2" width="2" height="2"/>
		<rect x="264.1" y="59.9" fill="#9D9FA2" width="2" height="2"/>
		<rect x="312.1" y="59.9" fill="#9D9FA2" width="2" height="2"/>
	</g>
</g>
</svg>
