<?xml version="1.0" encoding="utf-8"?>
<!-- Generator: Adobe Illustrator 18.1.1, SVG Export Plug-In . SVG Version: 6.00 Build 0)  -->
<svg version="1.1" id="Layer_1" xmlns="http://www.w3.org/2000/svg" xmlns:xlink="http://www.w3.org/1999/xlink" x="0px" y="0px"
	 viewBox="0 0 229.5 9.6" enable-background="new 0 0 229.5 9.6" xml:space="preserve">
<rect x="-24" y="-260.6" fill="none" width="612" height="792"/>
<g>
	<path d="M119.5,1h2.3v6.4h-2.3V1z"/>
</g>
<g>
	<path d="M129.6,1h2.2l2.1,3.5h0.1c-0.1-0.5-0.2-1.1-0.2-1.6V1h2.2v6.4h-2.2l-2-3.3h-0.1c0.1,0.4,0.1,0.9,0.1,1.3v2.1h-2.2V1z"/>
</g>
<g>
	<path d="M142.9,5.1l0.1,0.1c0.4,0.3,0.9,0.6,1.4,0.6c0.2,0,0.6-0.1,0.6-0.4c0-0.3-0.3-0.3-0.5-0.4L144.1,5
		c-0.9-0.2-1.7-0.7-1.7-1.7c0-1.5,1.4-2.4,2.8-2.4c0.7,0,1.4,0.2,2,0.6l-0.6,1.6c-0.4-0.3-0.8-0.5-1.3-0.5c-0.2,0-0.5,0.1-0.5,0.3
		c0,0.2,0.3,0.3,0.5,0.3l0.5,0.1c1,0.2,1.7,0.7,1.7,1.8c0,1.5-1.4,2.3-2.8,2.3c-0.8,0-1.7-0.2-2.5-0.6L142.9,5.1z"/>
</g>
<g>
	<path d="M154.6,1h4.9v2.1L158.2,3v4.4h-2.3V3l-1.3,0.1V1z"/>
</g>
<g>
	<path d="M167.5,1h2.3v6.4h-2.3V1z"/>
</g>
<g>
	<path fill="#00AEEF" d="M51.9,1v3.8c0,1.9-1.2,2.7-3,2.7c-1.8,0-3-0.8-3-2.7V1h2.3v3.6c0,0.5,0,0.9,0.6,0.9c0.6,0,0.6-0.4,0.6-0.9
		V1H51.9z"/>
</g>
<g>
	<path fill="#00AEEF" d="M57.8,1h2.8c1.4,0,2.7,0.6,2.7,2.2c0,1-0.4,1.4-1.2,1.7V5c0.1,0.1,0.3,0.2,0.4,0.4l1.4,2.1h-2.7l-1-2h0v2
		h-2.3V1z M60.1,3.9h0.2c0.4,0,0.8-0.1,0.8-0.5c0-0.5-0.3-0.5-0.7-0.5h-0.2V3.9z"/>
</g>
<g>
	<path fill="#00AEEF" d="M70.5,1h2.7c1.2,0,2.5,0.3,2.5,1.8c0,0.6-0.3,1.1-0.8,1.3v0.1C75.6,4.4,76,4.9,76,5.6
		c0,1.3-1.2,1.8-2.3,1.8h-3.2V1z M72.9,3.5c0.3,0,0.7,0,0.7-0.5c0-0.5-0.4-0.4-0.8-0.4h-0.2v0.9H72.9z M72.7,5.9h0.3
		c0.4,0,0.9,0,0.9-0.5c0-0.5-0.6-0.5-1-0.5h-0.2V5.9z"/>
</g>
<g>
	<path fill="#00AEEF" d="M83.9,7.4h-2.5L83.7,1h2.6l2.3,6.4h-2.5l-0.2-0.8h-1.8L83.9,7.4z M85.4,5.1L85.2,4
		c-0.1-0.3-0.1-0.5-0.2-0.8h-0.1l-0.4,1.9H85.4z"/>
</g>
<g>
	<path fill="#00AEEF" d="M94,1h2.2l2.1,3.5h0.1c-0.1-0.5-0.2-1.1-0.2-1.6V1h2.2v6.4h-2.2l-2-3.3H96c0.1,0.4,0.1,0.9,0.1,1.3v2.1H94
		V1z"/>
</g>
<g>
	<path d="M178.1,1h4.9v2.1L181.7,3v4.4h-2.3V3l-1.3,0.1V1z"/>
</g>
<g>
	<path d="M195.9,1v3.8c0,1.9-1.2,2.7-3,2.7c-1.8,0-3-0.8-3-2.7V1h2.3v3.6c0,0.5,0,0.9,0.6,0.9s0.6-0.4,0.6-0.9V1H195.9z"/>
</g>
<g>
	<path d="M202.1,1h4.9v2.1L205.7,3v4.4h-2.3V3l-1.3,0.1V1z"/>
</g>
<g>
	<path d="M214.5,1h4.3v1.7h-2v0.6h1.8V5h-1.8v0.6h2v1.7h-4.4V1z"/>
</g>
<rect x="24" y="3.4" fill="#9D9FA2" width="2" height="2"/>
<rect x="12" y="3.4" fill="#9D9FA2" width="2" height="2"/>
<rect y="3.4" fill="#9D9FA2" width="2" height="2"/>
<rect x="36" y="3.4" fill="#9D9FA2" width="2" height="2"/>
<g>
	<rect x="227.5" y="3.4" fill="#9D9FA2" width="2" height="2"/>
</g>
<g>
	<rect x="108" y="3.4" fill="#9D9FA2" width="2" height="2"/>
</g>
</svg>
