<?xml version="1.0" encoding="utf-8"?>
<!-- Generator: Adobe Illustrator 18.1.1, SVG Export Plug-In . SVG Version: 6.00 Build 0)  -->
<svg version="1.1" id="Layer_1" xmlns="http://www.w3.org/2000/svg" xmlns:xlink="http://www.w3.org/1999/xlink" x="0px" y="0px"
	 viewBox="0 0 396 108" enable-background="new 0 0 396 108" xml:space="preserve">
<g>
	<line fill="none" x1="84" y1="0" x2="84" y2="108"/>
	<line fill="none" x1="96" y1="0" x2="96" y2="108"/>
	<line fill="none" x1="72" y1="0" x2="72" y2="108"/>
	<line fill="none" x1="60" y1="0" x2="60" y2="108"/>
	<line fill="none" x1="48" y1="0" x2="48" y2="108"/>
	<line fill="none" x1="36" y1="0" x2="36" y2="108"/>
	<line fill="none" x1="24" y1="0" x2="24" y2="108"/>
	<line fill="none" x1="12" y1="0" x2="12" y2="108"/>
	<line fill="none" x1="0" y1="0" x2="0" y2="108"/>
	<line fill="none" x1="108" y1="0" x2="108" y2="108"/>
	<line fill="none" x1="108" y1="84" x2="0" y2="84"/>
	<line fill="none" x1="108" y1="96" x2="0" y2="96"/>
	<line fill="none" x1="108" y1="108" x2="0" y2="108"/>
	<line fill="none" x1="108" y1="72" x2="0" y2="72"/>
	<line fill="none" x1="108" y1="60" x2="0" y2="60"/>
	<line fill="none" x1="108" y1="48" x2="0" y2="48"/>
	<line fill="none" x1="108" y1="36" x2="0" y2="36"/>
	<line fill="none" x1="108" y1="24" x2="0" y2="24"/>
	<line fill="none" x1="108" y1="12" x2="0" y2="12"/>
	<line fill="none" x1="108" y1="0" x2="0" y2="0"/>
	<line fill="none" x1="192" y1="0" x2="192" y2="108"/>
	<line fill="none" x1="204" y1="0" x2="204" y2="108"/>
	<line fill="none" x1="180" y1="0" x2="180" y2="108"/>
	<line fill="none" x1="168" y1="0" x2="168" y2="108"/>
	<line fill="none" x1="156" y1="0" x2="156" y2="108"/>
	<line fill="none" x1="144" y1="0" x2="144" y2="108"/>
	<line fill="none" x1="132" y1="0" x2="132" y2="108"/>
	<line fill="none" x1="120" y1="0" x2="120" y2="108"/>
	<line fill="none" x1="108" y1="0" x2="108" y2="108"/>
	<line fill="none" x1="216" y1="0" x2="216" y2="108"/>
	<line fill="none" x1="216" y1="84" x2="108" y2="84"/>
	<line fill="none" x1="216" y1="96" x2="108" y2="96"/>
	<line fill="none" x1="216" y1="108" x2="108" y2="108"/>
	<line fill="none" x1="216" y1="72" x2="108" y2="72"/>
	<line fill="none" x1="216" y1="60" x2="108" y2="60"/>
	<line fill="none" x1="216" y1="48" x2="108" y2="48"/>
	<line fill="none" x1="216" y1="36" x2="108" y2="36"/>
	<line fill="none" x1="216" y1="24" x2="108" y2="24"/>
	<line fill="none" x1="216" y1="12" x2="108" y2="12"/>
	<line fill="none" x1="216" y1="0" x2="108" y2="0"/>
	<line fill="none" x1="300" y1="0" x2="300" y2="108"/>
	<line fill="none" x1="312" y1="0" x2="312" y2="108"/>
	<line fill="none" x1="288" y1="0" x2="288" y2="108"/>
	<line fill="none" x1="276" y1="0" x2="276" y2="108"/>
	<line fill="none" x1="264" y1="0" x2="264" y2="108"/>
	<line fill="none" x1="252" y1="0" x2="252" y2="108"/>
	<line fill="none" x1="240" y1="0" x2="240" y2="108"/>
	<line fill="none" x1="228" y1="0" x2="228" y2="108"/>
	<line fill="none" x1="216" y1="0" x2="216" y2="108"/>
	<line fill="none" x1="324" y1="0" x2="324" y2="108"/>
	<line fill="none" x1="324" y1="84" x2="216" y2="84"/>
	<line fill="none" x1="324" y1="96" x2="216" y2="96"/>
	<line fill="none" x1="324" y1="108" x2="216" y2="108"/>
	<line fill="none" x1="324" y1="72" x2="216" y2="72"/>
	<line fill="none" x1="324" y1="60" x2="216" y2="60"/>
	<line fill="none" x1="324" y1="48" x2="216" y2="48"/>
	<line fill="none" x1="324" y1="36" x2="216" y2="36"/>
	<line fill="none" x1="324" y1="24" x2="216" y2="24"/>
	<line fill="none" x1="324" y1="12" x2="216" y2="12"/>
	<line fill="none" x1="324" y1="0" x2="216" y2="0"/>
	<line fill="none" x1="396" y1="0" x2="396" y2="108"/>
	<line fill="none" x1="384" y1="0" x2="384" y2="108"/>
	<line fill="none" x1="372" y1="0" x2="372" y2="108"/>
	<line fill="none" x1="360" y1="0" x2="360" y2="108"/>
	<line fill="none" x1="348" y1="0" x2="348" y2="108"/>
	<line fill="none" x1="336" y1="0" x2="336" y2="108"/>
	<line fill="none" x1="324" y1="0" x2="324" y2="108"/>
	<line fill="none" x1="396" y1="84" x2="324" y2="84"/>
	<line fill="none" x1="396" y1="96" x2="324" y2="96"/>
	<line fill="none" x1="396" y1="108" x2="324" y2="108"/>
	<line fill="none" x1="396" y1="72" x2="324" y2="72"/>
	<line fill="none" x1="396" y1="60" x2="324" y2="60"/>
	<line fill="none" x1="396" y1="48" x2="324" y2="48"/>
	<line fill="none" x1="396" y1="36" x2="324" y2="36"/>
	<line fill="none" x1="396" y1="24" x2="324" y2="24"/>
	<line fill="none" x1="396" y1="12" x2="324" y2="12"/>
	<line fill="none" x1="396" y1="0" x2="324" y2="0"/>
</g>
<g>
	<g>
		<rect x="96" y="96" width="2" height="2"/>
		<rect x="84" y="96" width="2" height="2"/>
		<rect x="48" y="96" width="2" height="2"/>
		<rect x="60" y="96" width="2" height="2"/>
		<rect x="72" y="96" width="2" height="2"/>
		<rect x="36" y="96" width="2" height="2"/>
		<rect x="24" y="96" width="2" height="2"/>
		<rect x="12" y="96" width="2" height="2"/>
		<g>
			<g>
				<g>
					<path d="M60,57.6h2.3V64H60V57.6z"/>
				</g>
				<g>
					<path d="M70.1,57.6h2.2l2.1,3.5h0.1c-0.1-0.5-0.2-1.1-0.2-1.6v-1.9h2.2V64h-2.2l-2-3.3h-0.1c0.1,0.4,0.1,0.9,0.1,1.3V64h-2.2
						V57.6z"/>
				</g>
				<g>
					<path d="M83.4,61.7l0.1,0.1c0.4,0.3,0.9,0.6,1.4,0.6c0.2,0,0.6-0.1,0.6-0.4c0-0.3-0.3-0.3-0.5-0.4l-0.5-0.1
						c-0.9-0.2-1.7-0.7-1.7-1.7c0-1.5,1.4-2.4,2.8-2.4c0.7,0,1.4,0.2,2,0.6l-0.6,1.6c-0.4-0.3-0.8-0.5-1.3-0.5
						c-0.2,0-0.5,0.1-0.5,0.3c0,0.2,0.3,0.3,0.5,0.3l0.5,0.1c1,0.2,1.7,0.7,1.7,1.8c0,1.5-1.4,2.3-2.8,2.3c-0.8,0-1.7-0.2-2.5-0.6
						L83.4,61.7z"/>
				</g>
				<g>
					<path d="M95.1,57.6h4.9v2.1l-1.3-0.1V64h-2.3v-4.4l-1.3,0.1V57.6z"/>
				</g>
				<g>
					<path d="M108,57.6h2.3V64H108V57.6z"/>
				</g>
				<g>
					<path d="M118.6,57.6h4.9v2.1l-1.3-0.1V64h-2.3v-4.4l-1.3,0.1V57.6z"/>
				</g>
				<g>
					<path d="M136.4,57.6v3.8c0,1.9-1.2,2.7-3,2.7c-1.8,0-3-0.8-3-2.7v-3.8h2.3v3.6c0,0.5,0,0.9,0.6,0.9s0.6-0.4,0.6-0.9v-3.6H136.4
						z"/>
				</g>
				<g>
					<path d="M142.6,57.6h4.9v2.1l-1.3-0.1V64h-2.3v-4.4l-1.3,0.1V57.6z"/>
				</g>
				<g>
					<path d="M155,57.6h4.3v1.7h-2V60h1.8v1.7h-1.8v0.6h2V64H155V57.6z"/>
				</g>
			</g>
			<g>
				<g>
					<path d="M62.4,30.7v11.4c0,5.6-3.5,8.2-8.9,8.2s-8.9-2.6-8.9-8.2V30.7h7v10.8c0,1.5,0.1,2.8,1.9,2.8c1.9,0,1.9-1.3,1.9-2.8
						V30.7H62.4z"/>
				</g>
				<g>
					<path d="M69.7,30.7h8.5c4.4,0,8,1.8,8,6.7c0,2.9-1.1,4.2-3.7,5v0.2c0.4,0.3,0.8,0.6,1.2,1.2l4.2,6.3h-8.1l-3.1-6.2h-0.1V50
						h-6.9V30.7z M76.6,39.2h0.5c1.2,0,2.3-0.2,2.3-1.6c0-1.5-1.1-1.7-2.3-1.7h-0.5V39.2z"/>
				</g>
				<g>
					<path d="M93.2,30.7h8.2c3.7,0,7.6,0.9,7.6,5.4c0,1.7-0.8,3.4-2.5,3.9v0.2c2.1,0.7,3.4,2.3,3.4,4.6c0,4-3.7,5.3-7.1,5.3h-9.6
						V30.7z M100.4,38.1c1,0,2.2-0.1,2.2-1.4c0-1.4-1.3-1.3-2.3-1.3h-0.5v2.8H100.4z M99.8,45.4h0.8c1.2,0,2.8,0,2.8-1.6
						c0-1.6-1.8-1.6-2.9-1.6h-0.7V45.4z"/>
				</g>
				<g>
					<path d="M121.3,50h-7.4l6.7-19.3h7.8l6.9,19.3h-7.4l-0.6-2.4h-5.3L121.3,50z M126,43l-0.8-3.4c-0.2-0.8-0.3-1.7-0.5-2.5h-0.3
						l-1.3,5.9H126z"/>
				</g>
				<g>
					<path d="M139.9,30.7h6.7l6.3,10.7h0.2c-0.3-1.6-0.6-3.3-0.6-4.9v-5.8h6.7V50h-6.7l-6.2-10.2h-0.2c0.2,1.3,0.4,2.6,0.4,3.9V50
						h-6.7V30.7z"/>
				</g>
			</g>
			<g>
				<rect x="84" y="24" width="2" height="2"/>
				<rect x="96" y="24" width="2" height="2"/>
				<rect x="48" y="24" width="2" height="2"/>
				<rect x="60" y="24" width="2" height="2"/>
				<rect x="72" y="24" width="2" height="2"/>
				<rect x="36" y="24" width="2" height="2"/>
				<rect x="84" y="72" width="2" height="2"/>
				<rect x="96" y="72" width="2" height="2"/>
				<rect x="48" y="72" width="2" height="2"/>
				<rect x="60" y="72" width="2" height="2"/>
				<rect x="72" y="72" width="2" height="2"/>
				<rect x="36" y="72" width="2" height="2"/>
				<rect x="36" y="60" width="2" height="2"/>
				<rect x="36" y="48" width="2" height="2"/>
				<rect x="36" y="36" width="2" height="2"/>
				<rect x="72" y="24" width="2" height="2"/>
				<rect x="84" y="24" width="2" height="2"/>
				<rect x="96" y="24" width="2" height="2"/>
				<rect x="36" y="24" width="2" height="2"/>
				<rect x="48" y="24" width="2" height="2"/>
				<rect x="60" y="24" width="2" height="2"/>
				<rect x="24" y="24" width="2" height="2"/>
				<rect x="24" y="72" width="2" height="2"/>
				<rect x="24" y="60" width="2" height="2"/>
				<rect x="24" y="48" width="2" height="2"/>
				<rect x="24" y="36" width="2" height="2"/>
				<rect x="60" y="24" width="2" height="2"/>
				<rect x="72" y="24" width="2" height="2"/>
				<rect x="84" y="24" width="2" height="2"/>
				<rect x="96" y="24" width="2" height="2"/>
				<rect x="24" y="24" width="2" height="2"/>
				<rect x="36" y="24" width="2" height="2"/>
				<rect x="48" y="24" width="2" height="2"/>
				<rect x="84" y="84" width="2" height="2"/>
				<rect x="96" y="84" width="2" height="2"/>
				<rect x="48" y="84" width="2" height="2"/>
				<rect x="60" y="84" width="2" height="2"/>
				<rect x="72" y="84" width="2" height="2"/>
				<rect x="36" y="84" width="2" height="2"/>
				<rect x="24" y="84" width="2" height="2"/>
				<rect x="12" y="24" width="2" height="2"/>
				<rect x="12" y="72" width="2" height="2"/>
				<rect x="12" y="84" width="2" height="2"/>
				<rect x="12" y="60" width="2" height="2"/>
				<rect x="12" y="48" width="2" height="2"/>
				<rect x="12" y="36" width="2" height="2"/>
				<rect x="48" y="60" width="2" height="2"/>
				<g>
					<rect x="84" y="12" width="2" height="2"/>
					<rect x="96" y="12" width="2" height="2"/>
					<rect x="48" y="12" width="2" height="2"/>
					<rect x="60" y="12" width="2" height="2"/>
					<rect x="72" y="12" width="2" height="2"/>
					<rect x="36" y="12" width="2" height="2"/>
					<rect x="24" y="12" width="2" height="2"/>
					<rect x="12" y="12" width="2" height="2"/>
				</g>
			</g>
		</g>
	</g>
	<g>
		<g>
			<path fill="#9D9FA2" d="M178.9,57.6h4.3v1.7h-2V60h1.8v1.7h-1.8v0.6h2V64h-4.4V57.6z"/>
		</g>
		<g>
			<path fill="#9D9FA2" d="M191.5,57.6h2.3V62h1.9v2h-4.3V57.6z"/>
		</g>
		<g>
			<path fill="#9D9FA2" d="M203.1,57.6h4.3v1.7h-2V60h1.8v1.7h-1.8v0.6h2V64h-4.4V57.6z"/>
		</g>
		<g>
			<path fill="#9D9FA2" d="M250.7,57.6h4.3v1.7h-2V60h1.8v1.7h-1.8v0.6h2V64h-4.4V57.6z"/>
		</g>
		<g>
			<path fill="#9D9FA2" d="M221.1,57.6l-2.5,6.4h-2l-2.5-6.4h2.4l0.8,2.9c0.1,0.3,0.2,0.6,0.2,0.9h0.1c0-0.3,0.1-0.6,0.2-0.9
				l0.8-2.9H221.1z"/>
		</g>
		<g>
			<path fill="#9D9FA2" d="M228.4,64h-2.5l2.2-6.4h2.6L233,64h-2.5l-0.2-0.8h-1.8L228.4,64z M229.9,61.7l-0.3-1.1
				c-0.1-0.3-0.1-0.5-0.2-0.8h-0.1l-0.4,1.9H229.9z"/>
		</g>
		<g>
			<path fill="#9D9FA2" d="M238.6,57.6h4.9v2.1l-1.3-0.1V64h-2.3v-4.4l-1.3,0.1V57.6z"/>
		</g>
		<g>
			<path fill="#9D9FA2" d="M322.5,57.6h2.4c2.1,0,3.8,0.9,3.8,3.3c0,1.9-1.3,3.1-3.2,3.1h-2.9V57.6z M324.9,62.1h0.1
				c0.8,0,1.4-0.4,1.4-1.2c0-0.9-0.5-1.3-1.4-1.3h-0.1V62.1z"/>
		</g>
		<g>
			<path fill="#9D9FA2" d="M335.1,57.6h4.3v1.7h-2V60h1.8v1.7h-1.8v0.6h2V64h-4.4V57.6z"/>
		</g>
		<g>
			<path fill="#9D9FA2" d="M382.7,57.6h4.3v1.7h-2V60h1.8v1.7h-1.8v0.6h2V64h-4.4V57.6z"/>
		</g>
		<g>
			<path fill="#9D9FA2" d="M346.7,57.6h2.7c1.2,0,2.5,0.3,2.5,1.8c0,0.6-0.3,1.1-0.8,1.3v0.1c0.7,0.2,1.1,0.8,1.1,1.5
				c0,1.3-1.2,1.8-2.3,1.8h-3.2V57.6z M349.1,60.1c0.3,0,0.7,0,0.7-0.5c0-0.5-0.4-0.4-0.8-0.4h-0.2v0.9H349.1z M348.9,62.5h0.3
				c0.4,0,0.9,0,0.9-0.5c0-0.5-0.6-0.5-1-0.5h-0.2V62.5z"/>
		</g>
		<g>
			<path fill="#9D9FA2" d="M360.4,64h-2.5l2.2-6.4h2.6L365,64h-2.5l-0.2-0.8h-1.8L360.4,64z M361.9,61.7l-0.3-1.1
				c-0.1-0.3-0.1-0.5-0.2-0.8h-0.1l-0.4,1.9H361.9z"/>
		</g>
		<g>
			<path fill="#9D9FA2" d="M370.5,57.6h4.9v2.1l-1.3-0.1V64h-2.3v-4.4l-1.3,0.1V57.6z"/>
		</g>
		<rect x="312" y="60" fill="#9D9FA2" width="2" height="2"/>
		<g>
			<path fill="#9D9FA2" d="M275.1,57.6h4.9v2.1l-1.3-0.1V64h-2.3v-4.4l-1.3,0.1V57.6z"/>
		</g>
		<g>
			<path fill="#9D9FA2" d="M286.4,57.6h2.2v2.1h1.4v-2.1h2.2V64H290v-2.2h-1.4V64h-2.2V57.6z"/>
		</g>
		<g>
			<path fill="#9D9FA2" d="M298.7,57.6h4.3v1.7h-2V60h1.8v1.7H301v0.6h2V64h-4.4V57.6z"/>
		</g>
		<rect x="264" y="60" fill="#9D9FA2" width="2" height="2"/>
		<rect x="168" y="60" fill="#9D9FA2" width="2" height="2"/>
		<rect x="168" y="60" fill="#9D9FA2" width="2" height="2"/>
		<rect x="264" y="60" fill="#9D9FA2" width="2" height="2"/>
		<rect x="312" y="60" fill="#9D9FA2" width="2" height="2"/>
	</g>
</g>
</svg>
